<svg width="138" height="138" viewBox="0 0 138 138" fill="none" xmlns="http://www.w3.org/2000/svg">
<g opacity="0.4" filter="url(#filter0_f_1_8)">
<path d="M5 45C5 22.9086 22.9086 5 45 5H69H93C115.091 5 133 22.9086 133 45V93C133 115.091 115.091 133 93 133H45C22.9086 133 5 115.091 5 93V45Z" fill="#1F9F79" fill-opacity="0.38"/>
</g>
<g style="mix-blend-mode:multiply" opacity="0.4" filter="url(#filter1_i_1_8)">
<path d="M24.8302 66.9086C26.1604 67.2785 27.5387 66.5001 27.9086 65.1698C28.2785 63.8396 27.5 62.4614 26.1698 62.0914L24.8302 66.9086ZM81.469 27.4258L82.8877 29.4842L81.469 27.4258ZM116.969 41.4258L118.357 43.5048L118.357 43.5048L116.969 41.4258ZM116.969 22.9257L119.35 23.6877L116.969 22.9257ZM75.469 45.394L73.8536 43.486L75.469 45.394ZM129 58.8622L102.747 70.8666L126.269 87.6003L129 58.8622ZM26.1698 62.0914C24.6133 61.6586 23.9841 61.1696 23.7661 60.9055C23.655 60.771 23.563 60.6242 23.6726 60.1615C23.8104 59.5796 24.2494 58.6988 25.2 57.518C26.1274 56.366 27.4217 55.0752 29.0533 53.6744C35.6252 48.0324 46.7662 41.3631 57.82 35.6491C68.8743 29.9348 79.523 25.3389 85.0205 23.7477C86.4327 23.3389 87.2665 23.2017 87.6217 23.1988C87.8834 23.1966 87.4569 23.2684 86.9335 22.896C86.5908 22.6522 86.2642 22.2535 86.1205 21.7191C85.9892 21.2308 86.068 20.8422 86.1209 20.6634C86.2068 20.3727 86.3086 20.3392 86.0582 20.6294C85.8533 20.867 85.5114 21.2085 84.9855 21.6653C83.9373 22.5756 82.3302 23.796 80.0503 25.3673L82.8877 29.4842C85.2328 27.868 87.0127 26.5271 88.2641 25.4403C88.8879 24.8985 89.4239 24.3825 89.8438 23.8958C90.2183 23.4618 90.692 22.8374 90.9155 22.0815C91.0373 21.67 91.1263 21.0801 90.949 20.4209C90.7594 19.7157 90.3307 19.1766 89.832 18.8218C88.9966 18.2275 88.0428 18.1951 87.5806 18.1989C86.488 18.2079 85.0878 18.5229 83.6303 18.9448C77.6493 20.676 66.6495 25.4563 55.524 31.2074C44.398 36.9587 32.8281 43.8439 25.7964 49.8807C24.0271 51.3996 22.4897 52.9113 21.3052 54.3826C20.144 55.8251 19.191 57.3884 18.8071 59.0095C18.3951 60.7498 18.6519 62.5649 19.9107 64.0892C21.0625 65.484 22.8242 66.3508 24.8302 66.9086L26.1698 62.0914ZM80.0503 25.3673C52.8286 44.1282 36.03 61.7838 29.117 75.0219C25.7056 81.5544 24.3973 87.6045 26.2774 92.2547C28.2833 97.2161 33.3584 99.4258 39.8342 99.4258V94.4258C34.3101 94.4258 31.8166 92.6157 30.9129 90.3806C29.8834 87.8343 30.3246 83.511 33.549 77.3364C39.9076 65.1601 55.9264 48.0657 82.8877 29.4842L80.0503 25.3673ZM39.8342 99.4258C49.8413 99.4258 60.0741 95.5485 69.5972 90.007C79.1463 84.4504 88.1749 77.1073 95.8252 69.9094C103.482 62.7055 109.815 55.5926 113.974 50.4458C116.046 47.8813 117.611 45.7633 118.537 44.3421C118.95 43.7067 119.388 42.9857 119.595 42.3849C119.648 42.2313 119.756 41.8924 119.766 41.4712C119.775 41.1301 119.719 39.8942 118.509 39.1782C117.474 38.566 116.489 38.9116 116.299 38.9789C115.973 39.0951 115.719 39.2542 115.581 39.3467L118.357 43.5048C118.355 43.5067 118.213 43.6051 117.975 43.6897C117.875 43.7254 116.955 44.0683 115.963 43.4816C114.796 42.7911 114.761 41.6088 114.768 41.3484C114.776 41.008 114.86 40.7771 114.867 40.7577C114.889 40.6939 114.791 40.9303 114.346 41.6143C113.554 42.8319 112.107 44.8007 110.085 47.3035C106.055 52.2912 99.8745 59.2344 92.399 66.2679C84.917 73.3073 76.1951 80.3828 67.0824 85.6854C57.9438 91.0032 48.6037 94.4258 39.8342 94.4258V99.4258ZM115.581 39.3467C78.2838 64.253 59.5304 76.2309 52.3673 80.0655C51.4842 80.5382 50.8231 80.8621 50.3522 81.0647C49.7803 81.3108 49.7455 81.2622 49.9854 81.2474C50.0296 81.2447 50.9199 81.1647 51.6737 81.9315C52.5696 82.8427 52.334 83.9179 52.2737 84.1358C52.1977 84.41 52.0944 84.5431 52.1403 84.4732C52.1642 84.4367 52.2278 84.3479 52.3533 84.198C53.4797 82.8517 56.6267 80.0029 61.2189 76.0757C65.7331 72.2153 71.4431 67.479 77.5214 62.431C83.5921 57.3894 90.0226 52.0431 95.9513 46.9837C101.874 41.9294 107.329 37.1339 111.439 33.1958C113.491 31.2294 115.243 29.4437 116.561 27.9251C117.22 27.1662 117.796 26.4442 118.254 25.7771C118.693 25.1395 119.115 24.4222 119.35 23.6877L114.588 22.1638C114.588 22.1629 114.582 22.1818 114.564 22.2225C114.546 22.2628 114.52 22.3178 114.481 22.3886C114.404 22.5321 114.291 22.7167 114.134 22.9448C113.818 23.4041 113.372 23.9719 112.785 24.648C111.612 25.9996 109.984 27.665 107.98 29.5854C103.977 33.4207 98.6111 38.1408 92.7056 43.1803C86.8062 48.2147 80.4008 53.5403 74.3269 58.5845C68.2607 63.6225 62.5175 68.3862 57.9693 72.2758C53.499 76.0986 49.9741 79.2498 48.5185 80.9894C48.3212 81.2253 48.126 81.4767 47.9583 81.7326C47.8125 81.9551 47.5848 82.3328 47.455 82.8015C47.3408 83.214 47.1218 84.4336 48.1083 85.4369C48.9527 86.2957 50.0074 86.2555 50.2931 86.2379C51.0162 86.1933 51.7732 85.8965 52.3285 85.6576C52.9847 85.3752 53.786 84.9774 54.7271 84.4736C62.1578 80.4957 81.1544 68.3485 118.357 43.5048L115.581 39.3467ZM119.35 23.6877C119.605 22.8912 119.849 21.6839 119.315 20.5097C118.676 19.1042 117.375 18.6288 116.423 18.5273C115.531 18.4323 114.606 18.6004 113.805 18.8151C112.961 19.0412 112.037 19.381 111.073 19.7905C107.259 21.4103 101.984 24.4882 96.7024 27.8226C86.1283 34.4987 74.8458 42.6459 73.8536 43.486L77.0844 47.302C77.0793 47.3063 77.0904 47.2968 77.1275 47.2676C77.1615 47.2408 77.2075 47.205 77.2668 47.1597C77.3853 47.0689 77.5439 46.9495 77.7422 46.8021C78.1381 46.5078 78.6759 46.1141 79.3357 45.637C80.6547 44.6835 82.4481 43.4067 84.5455 41.9436C88.7432 39.0153 94.138 35.3548 99.3717 32.0505C104.645 28.7213 109.621 25.8394 113.027 24.3926C113.868 24.0354 114.56 23.7893 115.099 23.6446C115.682 23.4885 115.908 23.5007 115.893 23.4992C115.818 23.4912 115.118 23.3584 114.764 22.579C114.514 22.0309 114.726 21.7331 114.588 22.1638L119.35 23.6877ZM73.8536 43.486C57.5478 57.2916 45.2246 68.8161 36.2413 78.3379C27.2844 87.8318 21.5437 95.4427 18.5204 101.423C15.5781 107.242 14.7927 112.403 17.5627 116.086C20.2132 119.61 25.2649 120.535 30.592 120.347C41.5669 119.961 57.8309 114.701 73.9238 107.134C90.0768 99.5392 106.456 89.4313 117.653 79.0359L114.251 75.3716C103.557 85.3004 87.6668 95.1473 71.7963 102.61C55.8658 110.1 40.3517 115.001 30.4163 115.35C25.2882 115.531 22.6017 114.467 21.5586 113.08C20.6352 111.853 20.2009 109.18 22.9825 103.679C25.6829 98.3373 31.0385 91.1387 39.8782 81.7691C48.6915 72.4275 60.8652 61.0343 77.0844 47.302L73.8536 43.486Z" fill="#00FFA3" fill-opacity="0.2"/>
</g>
<g filter="url(#filter2_d_1_8)">
<path d="M37.6954 58.4672C33.2142 70.035 26 69.2721 26 63.3125C26 58.0608 32.4092 57.794 37.6954 58.4672C39.6784 58.7197 41.5034 59.1044 42.7728 59.408C43.8626 59.6685 44.6331 60.6049 44.7411 61.7202L45.6365 70.9734C45.8953 73.6471 49.5547 74.2013 50.5935 71.7241C51.685 69.1213 55.5625 69.9015 55.5625 72.7238V76.375C55.5625 77.8938 56.7937 79.125 58.3125 79.125H66.8944L71.1616 87.375H78.2138L78.7143 77.8648C78.8191 75.8739 80.9414 74.6526 82.7154 75.5624L95.6158 82.178C98.1845 83.4952 97.2477 87.375 94.361 87.375H78.2138L78.0952 89.6293C77.9478 92.4297 74.1947 93.239 72.9064 90.7481L71.1616 87.375L66.8944 79.125H58.3125C56.7937 79.125 55.5625 77.8938 55.5625 76.375V72.7238C55.5625 69.9015 51.685 69.1213 50.5935 71.7241C49.5547 74.2013 45.8953 73.6471 45.6365 70.9734L44.7411 61.7202C44.6331 60.6049 43.8626 59.6685 42.7728 59.408C41.5034 59.1044 39.6784 58.7197 37.6954 58.4672Z" fill="#13FB46"/>
<path d="M41.125 31C42.225 69.5 26 72.25 26 63.3125C26 56.0908 38.1195 58.2954 42.7728 59.408C43.8626 59.6685 44.6331 60.6049 44.7411 61.7202L45.6365 70.9734C45.8953 73.6471 49.5547 74.2013 50.5935 71.7241V71.7241C51.685 69.1214 55.5625 69.9015 55.5625 72.7238V76.375C55.5625 77.8938 56.7937 79.125 58.3125 79.125H67.9375C69.4563 79.125 70.6875 77.8938 70.6875 76.375V53.5628C70.6875 51.32 73.2278 50.0204 75.0466 51.3326L125 87.375M56.9375 59.875L72.9064 90.7481C74.1947 93.239 77.9478 92.4297 78.0952 89.6293L78.7143 77.8648C78.8191 75.8739 80.9414 74.6526 82.7154 75.5624L95.6158 82.178C98.1845 83.4952 97.2477 87.375 94.361 87.375H54.875C53.3562 87.375 52.125 88.6062 52.125 90.125V103.187" stroke="#012727" stroke-width="4.125" stroke-miterlimit="1.00189" stroke-linecap="round"/>
<path d="M41.125 31C42.225 69.5 26 72.25 26 63.3125C26 56.0908 38.1195 58.2954 42.7728 59.408C43.8626 59.6685 44.6331 60.6049 44.7411 61.7202L45.6365 70.9734C45.8953 73.6471 49.5547 74.2013 50.5935 71.7241V71.7241C51.685 69.1214 55.5625 69.9015 55.5625 72.7238V76.375C55.5625 77.8938 56.7937 79.125 58.3125 79.125H67.9375C69.4563 79.125 70.6875 77.8938 70.6875 76.375V53.5628C70.6875 51.32 73.2278 50.0204 75.0466 51.3326L125 87.375M56.9375 59.875L72.9064 90.7481C74.1947 93.239 77.9478 92.4297 78.0952 89.6293L78.7143 77.8648C78.8191 75.8739 80.9414 74.6526 82.7154 75.5624L95.6158 82.178C98.1845 83.4952 97.2477 87.375 94.361 87.375H54.875C53.3562 87.375 52.125 88.6062 52.125 90.125V103.187" stroke="#FD3D00" stroke-opacity="0.15" stroke-width="4.125" stroke-miterlimit="1.00189" stroke-linecap="round"/>
<path d="M41.125 31C42.225 69.5 26 72.25 26 63.3125C26 56.0908 38.1195 58.2954 42.7728 59.408C43.8626 59.6685 44.6331 60.6049 44.7411 61.7202L45.6365 70.9734C45.8953 73.6471 49.5547 74.2013 50.5935 71.7241V71.7241C51.685 69.1214 55.5625 69.9015 55.5625 72.7238V76.375C55.5625 77.8938 56.7937 79.125 58.3125 79.125H67.9375C69.4563 79.125 70.6875 77.8938 70.6875 76.375V53.5628C70.6875 51.32 73.2278 50.0204 75.0466 51.3326L125 87.375M56.9375 59.875L72.9064 90.7481C74.1947 93.239 77.9478 92.4297 78.0952 89.6293L78.7143 77.8648C78.8191 75.8739 80.9414 74.6526 82.7154 75.5624L95.6158 82.178C98.1845 83.4952 97.2477 87.375 94.361 87.375H54.875C53.3562 87.375 52.125 88.6062 52.125 90.125V103.187" stroke="#0E6262" stroke-opacity="0.3" stroke-width="4.125" stroke-miterlimit="1.00189" stroke-linecap="round"/>
</g>
<defs>
<filter id="filter0_f_1_8" x="0" y="0" width="138" height="138" filterUnits="userSpaceOnUse" color-interpolation-filters="sRGB">
<feFlood flood-opacity="0" result="BackgroundImageFix"/>
<feBlend mode="normal" in="SourceGraphic" in2="BackgroundImageFix" result="shape"/>
<feGaussianBlur stdDeviation="2.5" result="effect1_foregroundBlur_1_8"/>
</filter>
<filter id="filter1_i_1_8" x="15.8502" y="18.1987" width="113.15" height="105.171" filterUnits="userSpaceOnUse" color-interpolation-filters="sRGB">
<feFlood flood-opacity="0" result="BackgroundImageFix"/>
<feBlend mode="normal" in="SourceGraphic" in2="BackgroundImageFix" result="shape"/>
<feColorMatrix in="SourceAlpha" type="matrix" values="0 0 0 0 0 0 0 0 0 0 0 0 0 0 0 0 0 0 127 0" result="hardAlpha"/>
<feOffset dy="3"/>
<feGaussianBlur stdDeviation="2.5"/>
<feComposite in2="hardAlpha" operator="arithmetic" k2="-1" k3="1"/>
<feColorMatrix type="matrix" values="0 0 0 0 0 0 0 0 0 0 0 0 0 0 0 0 0 0 0.92 0"/>
<feBlend mode="normal" in2="shape" result="effect1_innerShadow_1_8"/>
</filter>
<filter id="filter2_d_1_8" x="18.4375" y="28.9375" width="114.125" height="87.3125" filterUnits="userSpaceOnUse" color-interpolation-filters="sRGB">
<feFlood flood-opacity="0" result="BackgroundImageFix"/>
<feColorMatrix in="SourceAlpha" type="matrix" values="0 0 0 0 0 0 0 0 0 0 0 0 0 0 0 0 0 0 127 0" result="hardAlpha"/>
<feOffset dy="5.5"/>
<feGaussianBlur stdDeviation="2.75"/>
<feComposite in2="hardAlpha" operator="out"/>
<feColorMatrix type="matrix" values="0 0 0 0 0 0 0 0 0 0 0 0 0 0 0 0 0 0 0.25 0"/>
<feBlend mode="normal" in2="BackgroundImageFix" result="effect1_dropShadow_1_8"/>
<feBlend mode="normal" in="SourceGraphic" in2="effect1_dropShadow_1_8" result="shape"/>
</filter>
</defs>
</svg>
