<svg width="89" height="80" viewBox="0 0 89 80" fill="none" xmlns="http://www.w3.org/2000/svg">
<g id="Vector 1" filter="url(#filter0_d_1_4)">
<path d="M15.6667 6C15.6667 8.94552 18.0545 11.3333 21 11.3333C23.9455 11.3333 26.3333 8.94552 26.3333 6C26.3333 3.05448 23.9455 0.666667 21 0.666667C18.0545 0.666667 15.6667 3.05448 15.6667 6ZM6 36.5L5.41303 35.6904L4.49191 36.3582L5.27241 37.186L6 36.5ZM26 22L26.9954 21.9037L26.8271 20.1652L25.413 21.1904L26 22ZM34 22H35L33.0778 21.6133L34 22ZM84.5 42L79.7687 31.4668L73.0123 40.8309L84.5 42ZM29.6667 22C29.6667 24.9455 32.0545 27.3333 35 27.3333C37.9455 27.3333 40.3333 24.9455 40.3333 22C40.3333 19.0545 37.9455 16.6667 35 16.6667C32.0545 16.6667 29.6667 19.0545 29.6667 22ZM50 51L49.1118 51.4594L50.8049 54.7328L50.9986 51.0526L50 51ZM51 32L51.4563 31.1102L50.0825 30.4057L50.0014 31.9474L51 32ZM70.5 42V43L70.9563 41.1102L70.5 42ZM31.5 42V41H29.4666L30.708 42.6105L31.5 42ZM44.6667 66C44.6667 68.9455 47.0545 71.3333 50 71.3333C52.9455 71.3333 55.3333 68.9455 55.3333 66C55.3333 63.0545 52.9455 60.6667 50 60.6667C47.0545 60.6667 44.6667 63.0545 44.6667 66ZM27.5 37.5L26.5046 37.5963L28.4222 37.8867L27.5 37.5ZM34 36H33V37H34V36ZM45 36V37H46V36H45ZM45 13.5L45.5851 12.6891L44 11.5454V13.5H45ZM20.0004 6.02856C20.3979 19.9409 18.0262 28.7845 15.0246 33.3916C13.5239 35.6952 11.9354 36.8391 10.5517 37.1584C9.22273 37.4651 7.89738 37.0547 6.72759 35.814L5.27241 37.186C6.85262 38.862 8.87727 39.5974 11.0014 39.1072C13.0709 38.6296 15.0386 37.034 16.7004 34.4834C20.0238 29.3822 22.4021 20.0591 21.9996 5.97144L20.0004 6.02856ZM6.58697 37.3096L26.587 22.8096L25.413 21.1904L5.41303 35.6904L6.58697 37.3096ZM34.1118 22.4594L49.1118 51.4594L50.8882 50.5406L35.8882 21.5406L34.1118 22.4594ZM50.9986 51.0526L51.9986 32.0526L50.0014 31.9474L49.0014 50.9474L50.9986 51.0526ZM50.5437 32.8898L70.0437 42.8898L70.9563 41.1102L51.4563 31.1102L50.5437 32.8898ZM70.5 41H31.5V43H70.5V41ZM30.708 42.6105L49.208 66.6105L50.792 65.3895L32.292 41.3895L30.708 42.6105ZM25.0046 22.0963L26.5046 37.5963L28.4954 37.4037L26.9954 21.9037L25.0046 22.0963ZM28.4222 37.8867L34.9222 22.3867L33.0778 21.6133L26.5778 37.1133L28.4222 37.8867ZM33 22V36H35V22H33ZM34 37H45V35H34V37ZM46 36V13.5H44V36H46ZM44.4149 14.3109L76.6163 37.5449L77.7866 35.923L45.5851 12.6891L44.4149 14.3109Z" fill="#034545"/>
</g>
<defs>
<filter id="filter0_d_1_4" x="0.491913" y="0.666656" width="88.0081" height="78.6667" filterUnits="userSpaceOnUse" color-interpolation-filters="sRGB">
<feFlood flood-opacity="0" result="BackgroundImageFix"/>
<feColorMatrix in="SourceAlpha" type="matrix" values="0 0 0 0 0 0 0 0 0 0 0 0 0 0 0 0 0 0 127 0" result="hardAlpha"/>
<feOffset dy="4"/>
<feGaussianBlur stdDeviation="2"/>
<feComposite in2="hardAlpha" operator="out"/>
<feColorMatrix type="matrix" values="0 0 0 0 0 0 0 0 0 0 0 0 0 0 0 0 0 0 0.25 0"/>
<feBlend mode="normal" in2="BackgroundImageFix" result="effect1_dropShadow_1_4"/>
<feBlend mode="normal" in="SourceGraphic" in2="effect1_dropShadow_1_4" result="shape"/>
</filter>
</defs>
</svg>
