<svg width="119" height="117" viewBox="0 0 119 117" fill="none" xmlns="http://www.w3.org/2000/svg">
<g filter="url(#filter0_d_1_8)">
<path d="M31.0058 44.9761C27.7467 53.3891 22.5 52.8343 22.5 48.5C22.5 44.6806 27.1612 44.4866 31.0058 44.9761C32.448 45.1598 33.7752 45.4396 34.6984 45.6603C35.491 45.8498 36.0514 46.5309 36.1299 47.3419L36.7811 54.0716C36.9693 56.0161 39.6307 56.4191 40.3862 54.6175C41.18 52.7246 44 53.292 44 55.3446V58C44 59.1046 44.8954 60 46 60H52.2414L55.3448 66H60.4737L60.8377 59.0835C60.9139 57.6356 62.4574 56.7474 63.7476 57.409L73.1297 62.2204C74.9978 63.1784 74.3165 66 72.2171 66H60.4737L60.3874 67.6395C60.2802 69.6762 57.5507 70.2647 56.6137 68.4532L55.3448 66L52.2414 60H46C44.8954 60 44 59.1046 44 58V55.3446C44 53.292 41.18 52.7246 40.3862 54.6175C39.6307 56.4191 36.9693 56.0161 36.7811 54.0716L36.1299 47.3419C36.0514 46.5309 35.491 45.8498 34.6984 45.6603C33.7752 45.4396 32.448 45.1598 31.0058 44.9761Z" fill="#13FB46"/>
<path d="M33.5 25C34.3 53 22.5 55 22.5 48.5C22.5 43.2478 31.3142 44.8512 34.6984 45.6603C35.491 45.8498 36.0514 46.5309 36.1299 47.3419L36.7811 54.0716C36.9693 56.0161 39.6307 56.4191 40.3862 54.6175V54.6175C41.18 52.7246 44 53.292 44 55.3446V58C44 59.1046 44.8954 60 46 60H53C54.1046 60 55 59.1046 55 58V41.4093C55 39.7782 56.8475 38.833 58.1702 39.7874L94.5 66M45 46L56.6137 68.4532C57.5507 70.2647 60.2802 69.6762 60.3874 67.6395L60.8377 59.0835C60.9139 57.6356 62.4574 56.7474 63.7476 57.409L73.1297 62.2204C74.9978 63.1784 74.3165 66 72.2171 66H43.5C42.3954 66 41.5 66.8954 41.5 68V77.5" stroke="#034545" stroke-width="3" stroke-miterlimit="1.00189" stroke-linecap="round"/>
<path d="M33.5 25C34.3 53 22.5 55 22.5 48.5C22.5 43.2478 31.3142 44.8512 34.6984 45.6603C35.491 45.8498 36.0514 46.5309 36.1299 47.3419L36.7811 54.0716C36.9693 56.0161 39.6307 56.4191 40.3862 54.6175V54.6175C41.18 52.7246 44 53.292 44 55.3446V58C44 59.1046 44.8954 60 46 60H53C54.1046 60 55 59.1046 55 58V41.4093C55 39.7782 56.8475 38.833 58.1702 39.7874L94.5 66M45 46L56.6137 68.4532C57.5507 70.2647 60.2802 69.6762 60.3874 67.6395L60.8377 59.0835C60.9139 57.6356 62.4574 56.7474 63.7476 57.409L73.1297 62.2204C74.9978 63.1784 74.3165 66 72.2171 66H43.5C42.3954 66 41.5 66.8954 41.5 68V77.5" stroke="#FD3D00" stroke-opacity="0.15" stroke-width="3" stroke-miterlimit="1.00189" stroke-linecap="round"/>
<path d="M33.5 25C34.3 53 22.5 55 22.5 48.5C22.5 43.2478 31.3142 44.8512 34.6984 45.6603C35.491 45.8498 36.0514 46.5309 36.1299 47.3419L36.7811 54.0716C36.9693 56.0161 39.6307 56.4191 40.3862 54.6175V54.6175C41.18 52.7246 44 53.292 44 55.3446V58C44 59.1046 44.8954 60 46 60H53C54.1046 60 55 59.1046 55 58V41.4093C55 39.7782 56.8475 38.833 58.1702 39.7874L94.5 66M45 46L56.6137 68.4532C57.5507 70.2647 60.2802 69.6762 60.3874 67.6395L60.8377 59.0835C60.9139 57.6356 62.4574 56.7474 63.7476 57.409L73.1297 62.2204C74.9978 63.1784 74.3165 66 72.2171 66H43.5C42.3954 66 41.5 66.8954 41.5 68V77.5" stroke="#0E6262" stroke-opacity="0.24" stroke-width="3" stroke-miterlimit="1.00189" stroke-linecap="round"/>
</g>
<g filter="url(#filter1_i_1_8)">
<path d="M50.2619 6.74414L23.5511 14.089L42.449 35.9111L53.5351 10.5238L50.2619 6.74414ZM64 25L65.4187 27.0585L64 25ZM99.5 39L100.888 41.0791L100.888 41.0791L99.5 39ZM99.5 20.5L101.881 21.2619L99.5 20.5ZM58 41L56.3846 39.092L58 41ZM118.5 53L92.7481 66.045L116.921 81.8243L118.5 53ZM51.3121 12.4041C56.9442 8.95999 62.3205 6.93672 66.7121 6.10957C71.2615 5.25272 74.2263 5.76856 75.5291 6.65202C76.0671 7.0168 76.2753 7.40036 76.3304 7.85788C76.3967 8.40873 76.2676 9.37304 75.4625 10.8308C73.8342 13.7793 69.9126 17.8889 62.5813 22.9415L65.4187 27.0585C72.9569 21.8632 77.6465 17.2188 79.8394 13.248C80.945 11.2461 81.5291 9.20943 81.2946 7.26058C81.0489 5.2184 79.9424 3.60353 78.3353 2.51375C75.3481 0.488076 70.7015 0.270262 65.7866 1.19597C60.7139 2.15139 54.773 4.42691 48.7035 8.13852L51.3121 12.4041ZM62.5813 22.9415C35.3596 41.7024 18.561 59.358 11.648 72.5962C8.23662 79.1287 6.92835 85.1787 8.80847 89.829C10.8144 94.7904 15.8894 97 22.3653 97V92C16.8411 92 14.3476 90.1899 13.4439 87.9548C12.4145 85.4086 12.8556 81.0853 16.08 74.9106C22.4386 62.7343 38.4574 45.6399 65.4187 27.0585L62.5813 22.9415ZM22.3653 97C32.3724 97 42.6051 93.1227 52.1282 87.5813C61.6773 82.0246 70.7059 74.6815 78.3562 67.4837C86.0129 60.2797 92.3464 53.1668 96.5047 48.02C98.5766 45.4555 100.142 43.3375 101.067 41.9163C101.481 41.281 101.919 40.5599 102.126 39.9591C102.179 39.8055 102.287 39.4666 102.297 39.0455C102.306 38.7043 102.25 37.4684 101.04 36.7525C100.005 36.1402 99.0197 36.4858 98.8304 36.5532C98.5037 36.6694 98.2502 36.8284 98.1117 36.9209L100.888 41.0791C100.885 41.081 100.744 41.1794 100.506 41.2639C100.406 41.2996 99.4862 41.6426 98.4944 41.0558C97.3272 40.3653 97.2923 39.1831 97.2987 38.9227C97.3071 38.5823 97.3911 38.3514 97.3978 38.332C97.4198 38.2681 97.3224 38.5045 96.8771 39.1885C96.0845 40.4062 94.6376 42.375 92.6155 44.8777C88.5857 49.8654 82.4054 56.8087 74.93 63.8421C67.448 70.8816 58.7261 77.9571 49.6135 83.2597C40.4749 88.5774 31.1348 92 22.3653 92V97ZM98.1117 36.9209C60.8147 61.8273 42.0613 73.8051 34.8982 77.6397C34.0151 78.1125 33.354 78.4363 32.8831 78.6389C32.3112 78.885 32.2764 78.8364 32.5164 78.8216C32.5605 78.8189 33.4508 78.739 34.2046 79.5057C35.1005 80.417 34.8649 81.4921 34.8046 81.7101C34.7287 81.9842 34.6254 82.1174 34.6712 82.0475C34.6951 82.0109 34.7588 81.9221 34.8842 81.7722C36.0106 80.426 39.1576 77.5772 43.7498 73.65C48.2641 69.7895 53.974 65.0532 60.0523 60.0053C66.123 54.9636 72.5535 49.6173 78.4822 44.5579C84.4049 39.5037 89.8595 34.7081 93.9698 30.77C96.0221 28.8037 97.7742 27.0179 99.092 25.4994C99.7507 24.7404 100.327 24.0184 100.785 23.3514C101.224 22.7138 101.646 21.9965 101.881 21.2619L97.119 19.7381C97.1193 19.7371 97.1132 19.7561 97.0951 19.7968C97.0773 19.837 97.0506 19.8921 97.0123 19.9628C96.9346 20.1064 96.8218 20.2909 96.665 20.5191C96.3493 20.9784 95.9024 21.5462 95.3157 22.2223C94.1428 23.5739 92.515 25.2393 90.5107 27.1597C86.5077 30.995 81.142 35.7151 75.2365 40.7546C69.3371 45.7889 62.9317 51.1145 56.8579 56.1588C50.7916 61.1968 45.0485 65.9605 40.5002 69.85C36.0299 73.6728 32.505 76.824 31.0494 78.5637C30.8521 78.7995 30.6569 79.051 30.4892 79.3068C30.3434 79.5293 30.1157 79.9071 29.9859 80.3757C29.8717 80.7882 29.6528 82.0078 30.6392 83.0111C31.4836 83.87 32.5383 83.8298 32.824 83.8122C33.5471 83.7676 34.3041 83.4707 34.8594 83.2318C35.5157 82.9494 36.3169 82.5516 37.258 82.0478C44.6888 78.0699 63.6853 65.9227 100.888 41.0791L98.1117 36.9209ZM101.881 21.2619C102.144 20.4401 102.367 19.2581 101.863 18.1001C101.276 16.7479 100.068 16.1995 99.1029 16.0375C98.2085 15.8873 97.2727 16.004 96.4602 16.1778C95.6072 16.3602 94.6751 16.6543 93.706 17.0164C89.8762 18.4473 84.5887 21.2796 79.3061 24.3685C73.9813 27.4822 68.5153 30.9438 64.278 33.7143C62.158 35.1005 60.3392 36.3177 58.9927 37.2368C57.7178 38.1069 56.7226 38.8058 56.3846 39.092L59.6154 42.908C59.5984 42.9224 59.6319 42.8941 59.7615 42.7986C59.8752 42.7148 60.0299 42.6033 60.2263 42.4643C60.6182 42.1868 61.1528 41.816 61.8114 41.3665C63.1272 40.4684 64.9182 39.2696 67.0142 37.8992C71.209 35.1565 76.6004 31.7427 81.83 28.6848C87.1018 25.6022 92.0656 22.9668 95.456 21.7001C96.2919 21.3878 96.9753 21.1806 97.5058 21.0672C98.0767 20.9451 98.2924 20.9714 98.2747 20.9684C98.1867 20.9536 97.5806 20.7902 97.2776 20.0929C97.0589 19.5898 97.2487 19.3328 97.119 19.7381L101.881 21.2619ZM56.3846 39.092C40.053 52.9194 27.828 64.4701 19.0393 74.0197C10.2817 83.5352 4.81371 91.1934 2.1501 97.2382C-0.48329 103.214 -0.679572 108.43 2.68121 111.997C5.78542 115.291 11.1486 116.214 16.9827 116C28.917 115.563 46.1499 110.226 62.9929 102.488C79.8768 94.7322 96.7551 84.3866 107.933 73.6439L104.469 70.0388C93.8394 80.254 77.5042 90.3197 60.9057 97.9448C44.2665 105.589 27.7484 110.603 16.7998 111.003C11.1925 111.209 7.83133 110.171 6.32036 108.568C5.06596 107.236 4.36368 104.614 6.72559 99.2543C9.05727 93.9628 14.0858 86.7853 22.7183 77.4056C31.3196 68.0598 43.378 56.6556 59.6154 42.908L56.3846 39.092Z" fill="#31E6FF" fill-opacity="0.04"/>
</g>
<defs>
<filter id="filter0_d_1_8" x="17" y="23.5" width="83.0001" height="63.5" filterUnits="userSpaceOnUse" color-interpolation-filters="sRGB">
<feFlood flood-opacity="0" result="BackgroundImageFix"/>
<feColorMatrix in="SourceAlpha" type="matrix" values="0 0 0 0 0 0 0 0 0 0 0 0 0 0 0 0 0 0 127 0" result="hardAlpha"/>
<feOffset dy="4"/>
<feGaussianBlur stdDeviation="2"/>
<feComposite in2="hardAlpha" operator="out"/>
<feColorMatrix type="matrix" values="0 0 0 0 0 0 0 0 0 0 0 0 0 0 0 0 0 0 0.25 0"/>
<feBlend mode="normal" in2="BackgroundImageFix" result="effect1_dropShadow_1_8"/>
<feBlend mode="normal" in="SourceGraphic" in2="effect1_dropShadow_1_8" result="shape"/>
</filter>
<filter id="filter1_i_1_8" x="0.166077" y="0.671661" width="118.334" height="119.358" filterUnits="userSpaceOnUse" color-interpolation-filters="sRGB">
<feFlood flood-opacity="0" result="BackgroundImageFix"/>
<feBlend mode="normal" in="SourceGraphic" in2="BackgroundImageFix" result="shape"/>
<feColorMatrix in="SourceAlpha" type="matrix" values="0 0 0 0 0 0 0 0 0 0 0 0 0 0 0 0 0 0 127 0" result="hardAlpha"/>
<feOffset dy="4"/>
<feGaussianBlur stdDeviation="2"/>
<feComposite in2="hardAlpha" operator="arithmetic" k2="-1" k3="1"/>
<feColorMatrix type="matrix" values="0 0 0 0 0 0 0 0 0 0 0 0 0 0 0 0 0 0 0.25 0"/>
<feBlend mode="normal" in2="shape" result="effect1_innerShadow_1_8"/>
</filter>
</defs>
</svg>
