<svg width="120" height="103" viewBox="0 0 120 103" fill="none" xmlns="http://www.w3.org/2000/svg">
<g filter="url(#filter0_d_1_8)">
<path d="M39.4747 38.5079C36.2156 46.9209 30.969 46.366 30.969 42.0317C30.969 38.2123 35.6302 38.0183 39.4747 38.5079C40.9169 38.6915 42.2442 38.9713 43.1674 39.1921C43.9599 39.3816 44.5203 40.0626 44.5988 40.8737L45.2501 47.6033C45.4383 49.5478 48.0996 49.9509 48.8551 48.1493C49.6489 46.2564 52.469 46.8237 52.469 48.8764V51.5317C52.469 52.6363 53.3644 53.5317 54.469 53.5317H60.7103L63.8138 59.5317H68.9426L69.3067 52.6153C69.3829 51.1673 70.9263 50.2791 72.2165 50.9408L81.5987 55.7521C83.4668 56.7101 82.7854 59.5317 80.686 59.5317H68.9426L68.8564 61.1712C68.7492 63.2079 66.0197 63.7965 65.0827 61.9849L63.8138 59.5317L60.7103 53.5317H54.469C53.3644 53.5317 52.469 52.6363 52.469 51.5317V48.8764C52.469 46.8237 49.6489 46.2564 48.8551 48.1493C48.0996 49.9509 45.4383 49.5478 45.2501 47.6033L44.5988 40.8737C44.5203 40.0626 43.9599 39.3816 43.1674 39.1921C42.2442 38.9713 40.9169 38.6915 39.4747 38.5079Z" fill="#13FB46"/>
<path d="M41.969 18.5317C42.769 46.5317 30.969 48.5317 30.969 42.0317C30.969 36.7796 39.7832 38.3829 43.1674 39.1921C43.9599 39.3816 44.5203 40.0626 44.5988 40.8737L45.2501 47.6033C45.4383 49.5478 48.0996 49.9509 48.8551 48.1493V48.1493C49.6489 46.2564 52.469 46.8237 52.469 48.8764V51.5317C52.469 52.6363 53.3644 53.5317 54.469 53.5317H61.469C62.5735 53.5317 63.469 52.6363 63.469 51.5317V34.941C63.469 33.3099 65.3164 32.3647 66.6392 33.3191L102.969 59.5317M53.469 39.5317L65.0827 61.9849C66.0197 63.7965 68.7492 63.2079 68.8564 61.1712L69.3067 52.6153C69.3829 51.1673 70.9264 50.2791 72.2165 50.9408L81.5987 55.7521C83.4668 56.7101 82.7854 59.5317 80.686 59.5317H51.969C50.8644 59.5317 49.969 60.4272 49.969 61.5317V71.0317" stroke="#034545" stroke-width="3" stroke-miterlimit="1.00189" stroke-linecap="round"/>
<path d="M41.969 18.5317C42.769 46.5317 30.969 48.5317 30.969 42.0317C30.969 36.7796 39.7832 38.3829 43.1674 39.1921C43.9599 39.3816 44.5203 40.0626 44.5988 40.8737L45.2501 47.6033C45.4383 49.5478 48.0996 49.9509 48.8551 48.1493V48.1493C49.6489 46.2564 52.469 46.8237 52.469 48.8764V51.5317C52.469 52.6363 53.3644 53.5317 54.469 53.5317H61.469C62.5735 53.5317 63.469 52.6363 63.469 51.5317V34.941C63.469 33.3099 65.3164 32.3647 66.6392 33.3191L102.969 59.5317M53.469 39.5317L65.0827 61.9849C66.0197 63.7965 68.7492 63.2079 68.8564 61.1712L69.3067 52.6153C69.3829 51.1673 70.9264 50.2791 72.2165 50.9408L81.5987 55.7521C83.4668 56.7101 82.7854 59.5317 80.686 59.5317H51.969C50.8644 59.5317 49.969 60.4272 49.969 61.5317V71.0317" stroke="#FD3D00" stroke-opacity="0.15" stroke-width="3" stroke-miterlimit="1.00189" stroke-linecap="round"/>
<path d="M41.969 18.5317C42.769 46.5317 30.969 48.5317 30.969 42.0317C30.969 36.7796 39.7832 38.3829 43.1674 39.1921C43.9599 39.3816 44.5203 40.0626 44.5988 40.8737L45.2501 47.6033C45.4383 49.5478 48.0996 49.9509 48.8551 48.1493V48.1493C49.6489 46.2564 52.469 46.8237 52.469 48.8764V51.5317C52.469 52.6363 53.3644 53.5317 54.469 53.5317H61.469C62.5735 53.5317 63.469 52.6363 63.469 51.5317V34.941C63.469 33.3099 65.3164 32.3647 66.6392 33.3191L102.969 59.5317M53.469 39.5317L65.0827 61.9849C66.0197 63.7965 68.7492 63.2079 68.8564 61.1712L69.3067 52.6153C69.3829 51.1673 70.9264 50.2791 72.2165 50.9408L81.5987 55.7521C83.4668 56.7101 82.7854 59.5317 80.686 59.5317H51.969C50.8644 59.5317 49.969 60.4272 49.969 61.5317V71.0317" stroke="#0E6262" stroke-opacity="0.24" stroke-width="3" stroke-miterlimit="1.00189" stroke-linecap="round"/>
</g>
<g filter="url(#filter1_i_1_8)">
<path d="M2.96898 21.5318L26.7402 37.9105L29.039 9.13465L2.96898 21.5318ZM72.469 9.53177L73.8877 11.5902L72.469 9.53177ZM107.969 23.5318L109.357 25.6108L109.357 25.6108L107.969 23.5318ZM107.969 5.03175L110.35 5.79369L107.969 5.03175ZM66.469 27.5L64.8536 25.592L66.469 27.5ZM120 40.9682L93.7468 52.9726L117.269 69.7063L120 40.9682ZM26.2313 25.6803C40.7351 20.5492 58.4812 13.0694 69.2614 9.01935C71.9949 7.99241 74.2736 7.18738 75.9808 6.67212C76.838 6.41342 77.501 6.24318 77.9789 6.15168C78.5789 6.03683 78.555 6.11548 78.2601 6.04768C78.0875 6.00798 77.3646 5.80787 76.9108 5.00136C76.4383 4.16162 76.6671 3.40433 76.7489 3.19146C76.8727 2.8691 76.9753 2.89222 76.4639 3.3776C75.6091 4.18893 73.8963 5.51187 71.0503 7.47329L73.8877 11.5902C76.7421 9.623 78.7418 8.10914 79.9061 7.00411C80.4042 6.53131 81.0929 5.82636 81.4163 4.98461C81.5978 4.51205 81.8298 3.54724 81.2683 2.54947C80.7256 1.58493 79.8217 1.27628 79.3807 1.17486C78.549 0.983608 77.6385 1.12607 77.0389 1.24085C76.3172 1.37899 75.4677 1.60422 74.5361 1.88538C72.6658 2.44986 70.2622 3.30217 67.503 4.33877C56.3126 8.54287 39.1221 15.8162 24.5637 20.9666L26.2313 25.6803ZM71.0503 7.47329C43.8287 26.2342 27.03 43.8898 20.117 57.1279C16.7056 63.6605 15.3973 69.7105 17.2774 74.3607C19.2834 79.3222 24.3584 81.5318 30.8342 81.5318V76.5318C25.3101 76.5318 22.8166 74.7217 21.9129 72.4866C20.8835 69.9404 21.3246 65.6171 24.549 59.4424C30.9076 47.2661 46.9264 30.1717 73.8877 11.5902L71.0503 7.47329ZM30.8342 81.5318C40.8414 81.5318 51.0741 77.6545 60.5972 72.113C70.1463 66.5564 79.1749 59.2133 86.8252 52.0154C94.4819 44.8115 100.815 37.6986 104.974 32.5518C107.046 29.9873 108.611 27.8693 109.537 26.4481C109.95 25.8127 110.388 25.0917 110.595 24.4909C110.648 24.3373 110.756 23.9984 110.766 23.5772C110.775 23.2361 110.719 22.0002 109.509 21.2842C108.474 20.672 107.489 21.0176 107.299 21.0849C106.973 21.2012 106.719 21.3602 106.581 21.4527L109.357 25.6108C109.355 25.6128 109.213 25.7111 108.975 25.7957C108.875 25.8314 107.955 26.1744 106.963 25.5876C105.796 24.8971 105.761 23.7148 105.768 23.4544C105.776 23.114 105.86 22.8831 105.867 22.8638C105.889 22.7999 105.791 23.0363 105.346 23.7203C104.554 24.9379 103.107 26.9067 101.085 29.4095C97.0548 34.3972 90.8745 41.3404 83.399 48.3739C75.9171 55.4134 67.1951 62.4888 58.0825 67.7914C48.9438 73.1092 39.6037 76.5318 30.8342 76.5318V81.5318ZM106.581 21.4527C69.2838 46.359 50.5304 58.3369 43.3673 62.1715C42.4842 62.6442 41.8231 62.9681 41.3522 63.1707C40.7803 63.4168 40.7455 63.3682 40.9854 63.3534C41.0296 63.3507 41.9199 63.2707 42.6737 64.0375C43.5696 64.9487 43.334 66.0239 43.2737 66.2418C43.1978 66.516 43.0944 66.6492 43.1403 66.5792C43.1642 66.5427 43.2279 66.4539 43.3533 66.304C44.4797 64.9577 47.6267 62.1089 52.2189 58.1817C56.7332 54.3213 62.4431 49.585 68.5214 44.537C74.5921 39.4954 81.0226 34.1491 86.9513 29.0897C92.874 24.0354 98.3286 19.2399 102.439 15.3018C104.491 13.3354 106.243 11.5497 107.561 10.0312C108.22 9.27219 108.796 8.55018 109.255 7.88316C109.693 7.24551 110.115 6.52822 110.35 5.79369L105.588 4.26981C105.588 4.26887 105.582 4.28784 105.564 4.32855C105.546 4.36879 105.52 4.42384 105.481 4.49458C105.404 4.63812 105.291 4.82268 105.134 5.05083C104.818 5.51015 104.372 6.07793 103.785 6.75403C102.612 8.10564 100.984 9.77105 98.9798 11.6914C94.9768 15.5268 89.6111 20.2468 83.7056 25.2863C77.8062 30.3207 71.4008 35.6463 65.3269 40.6905C59.2607 45.7285 53.5176 50.4922 48.9693 54.3818C44.499 58.2046 40.9741 61.3558 39.5185 63.0955C39.3212 63.3313 39.126 63.5827 38.9583 63.8386C38.8125 64.0611 38.5848 64.4388 38.455 64.9075C38.3408 65.32 38.1219 66.5396 39.1083 67.5429C39.9527 68.4017 41.0074 68.3615 41.2931 68.3439C42.0162 68.2993 42.7732 68.0025 43.3285 67.7636C43.9848 67.4812 44.786 67.0834 45.7271 66.5796C53.1578 62.6017 72.1544 50.4545 109.357 25.6108L106.581 21.4527ZM110.35 5.79369C110.605 4.9972 110.849 3.78991 110.315 2.61574C109.676 1.21018 108.375 0.734769 107.423 0.633344C106.531 0.538355 105.606 0.706401 104.805 0.921102C103.961 1.14725 103.037 1.48699 102.073 1.89649C98.2591 3.51629 92.9838 6.59416 87.7025 9.9286C77.1283 16.6047 65.8458 24.7519 64.8536 25.592L68.0844 29.408C68.0793 29.4123 68.0904 29.4028 68.1275 29.3736C68.1615 29.3468 68.2075 29.311 68.2668 29.2657C68.3853 29.1749 68.5439 29.0555 68.7422 28.9081C69.1381 28.6139 69.6759 28.2201 70.3358 27.743C71.6547 26.7895 73.4481 25.5127 75.5455 24.0496C79.7432 21.1213 85.1381 17.4608 90.3718 14.1565C95.6448 10.8273 100.621 7.94543 104.027 6.49858C104.868 6.14141 105.56 5.8953 106.099 5.75063C106.682 5.5945 106.908 5.60675 106.893 5.60519C106.818 5.59719 106.118 5.46444 105.764 4.68497C105.514 4.13689 105.726 3.83914 105.588 4.26981L110.35 5.79369ZM64.8536 25.592C48.5478 39.3976 36.2246 50.9221 27.2413 60.4439C18.2844 69.9378 12.5437 77.5487 9.52036 83.5286C6.57816 89.3481 5.79268 94.5088 8.56274 98.1917C11.2132 101.716 16.2649 102.641 21.592 102.453C32.5669 102.067 48.8309 96.8074 64.9238 89.2405C81.0768 81.6452 97.4558 71.5373 108.653 61.1419L105.251 57.4776C94.5565 67.4064 78.6668 77.2533 62.7963 84.7157C46.8658 92.2063 31.3517 97.1069 21.4163 97.4563C16.2882 97.6367 13.6017 96.5731 12.5587 95.1863C11.6352 93.9585 11.201 91.2862 13.9825 85.7845C16.6829 80.4433 22.0385 73.2448 30.8782 63.8751C39.6915 54.5335 51.8652 43.1403 68.0844 29.408L64.8536 25.592Z" fill="#31E6FF" fill-opacity="0.04"/>
</g>
<defs>
<filter id="filter0_d_1_8" x="25.469" y="17.0317" width="83.0001" height="63.5" filterUnits="userSpaceOnUse" color-interpolation-filters="sRGB">
<feFlood flood-opacity="0" result="BackgroundImageFix"/>
<feColorMatrix in="SourceAlpha" type="matrix" values="0 0 0 0 0 0 0 0 0 0 0 0 0 0 0 0 0 0 127 0" result="hardAlpha"/>
<feOffset dy="4"/>
<feGaussianBlur stdDeviation="2"/>
<feComposite in2="hardAlpha" operator="out"/>
<feColorMatrix type="matrix" values="0 0 0 0 0 0 0 0 0 0 0 0 0 0 0 0 0 0 0.25 0"/>
<feBlend mode="normal" in2="BackgroundImageFix" result="effect1_dropShadow_1_8"/>
<feBlend mode="normal" in="SourceGraphic" in2="effect1_dropShadow_1_8" result="shape"/>
</filter>
<filter id="filter1_i_1_8" x="2.96898" y="0.606171" width="117.031" height="105.87" filterUnits="userSpaceOnUse" color-interpolation-filters="sRGB">
<feFlood flood-opacity="0" result="BackgroundImageFix"/>
<feBlend mode="normal" in="SourceGraphic" in2="BackgroundImageFix" result="shape"/>
<feColorMatrix in="SourceAlpha" type="matrix" values="0 0 0 0 0 0 0 0 0 0 0 0 0 0 0 0 0 0 127 0" result="hardAlpha"/>
<feOffset dy="4"/>
<feGaussianBlur stdDeviation="2"/>
<feComposite in2="hardAlpha" operator="arithmetic" k2="-1" k3="1"/>
<feColorMatrix type="matrix" values="0 0 0 0 0 0 0 0 0 0 0 0 0 0 0 0 0 0 0.25 0"/>
<feBlend mode="normal" in2="shape" result="effect1_innerShadow_1_8"/>
</filter>
</defs>
</svg>
