<svg xmlns="http://www.w3.org/2000/svg" xmlns:xlink="http://www.w3.org/1999/xlink" width="500" zoomAndPan="magnify" viewBox="0 0 375 374.999991" height="500" preserveAspectRatio="xMidYMid meet" version="1.0"><defs><g/><clipPath id="id1"><path d="M 138.261719 107.464844 L 236.511719 107.464844 L 236.511719 205.714844 L 138.261719 205.714844 Z M 138.261719 107.464844 " clip-rule="nonzero"/></clipPath></defs><g clip-path="url(#id1)"><path fill="#38b6ff" d="M 196.679688 115.246094 L 203.445312 121.042969 L 201.214844 126.621094 L 194.546875 123.957031 C 194.128906 123.789062 193.660156 123.800781 193.25 123.992188 C 192.839844 124.179688 192.527344 124.53125 192.386719 124.957031 L 190.746094 129.871094 C 190.488281 130.644531 190.839844 131.488281 191.570312 131.851562 L 193.9375 133.039062 L 193.9375 138.574219 C 193.9375 139.246094 194.347656 139.847656 194.96875 140.097656 L 201.503906 142.710938 L 201.113281 143.488281 L 195.574219 143.488281 C 194.957031 143.488281 194.390625 143.839844 194.113281 144.394531 L 192.359375 147.902344 C 189.25 143.988281 187.386719 139.039062 187.386719 133.664062 C 187.386719 126.125 191.046875 119.425781 196.679688 115.246094 Z M 214.234375 111.074219 L 210.445312 119.917969 C 210.238281 120.402344 210.277344 120.957031 210.546875 121.40625 L 215.460938 129.59375 C 215.753906 130.085938 216.289062 130.386719 216.863281 130.386719 L 220.136719 130.386719 L 220.136719 134.625 L 217.34375 137.417969 C 217.007812 137.753906 216.835938 138.21875 216.867188 138.691406 C 216.902344 139.167969 217.140625 139.601562 217.519531 139.886719 L 223.125 144.089844 L 221.859375 147.882812 C 221.664062 148.472656 221.816406 149.121094 222.257812 149.558594 L 224.417969 151.722656 C 220.527344 154.769531 215.628906 156.589844 210.3125 156.589844 C 204.304688 156.589844 198.828125 154.261719 194.738281 150.46875 L 196.589844 146.761719 L 202.125 146.761719 C 202.746094 146.761719 203.3125 146.414062 203.589844 145.859375 L 205.226562 142.582031 C 205.433594 142.175781 205.457031 141.695312 205.292969 141.269531 C 205.132812 140.839844 204.796875 140.5 204.371094 140.332031 L 197.214844 137.46875 L 197.214844 132.027344 C 197.214844 131.40625 196.863281 130.839844 196.308594 130.5625 L 194.304688 129.558594 L 194.941406 127.640625 L 201.519531 130.273438 C 202.355469 130.605469 203.308594 130.199219 203.648438 129.359375 L 206.921875 121.171875 C 207.183594 120.519531 207 119.777344 206.46875 119.320312 L 199.578125 113.414062 C 202.78125 111.707031 206.4375 110.738281 210.3125 110.738281 C 211.652344 110.738281 212.960938 110.855469 214.234375 111.074219 Z M 233.238281 133.664062 C 233.238281 139.8125 230.804688 145.402344 226.851562 149.523438 L 225.285156 147.960938 L 226.605469 144.007812 C 226.828125 143.335938 226.597656 142.601562 226.035156 142.179688 L 220.996094 138.398438 L 222.933594 136.457031 C 223.242188 136.152344 223.414062 135.734375 223.414062 135.300781 L 223.414062 128.75 C 223.414062 127.847656 222.679688 127.113281 221.777344 127.113281 L 217.789062 127.113281 L 213.785156 120.4375 L 217.453125 111.878906 C 226.609375 114.886719 233.238281 123.515625 233.238281 133.664062 Z M 168.3125 197.527344 L 160.613281 197.527344 C 161.703125 196.097656 162.421875 194.410156 162.699219 192.613281 L 166.230469 192.613281 C 166.503906 194.410156 167.222656 196.097656 168.3125 197.527344 Z M 175.925781 201.621094 C 175.925781 202.070312 175.558594 202.4375 175.105469 202.4375 L 153.820312 202.4375 C 153.367188 202.4375 153 202.070312 153 201.621094 C 153 201.167969 153.367188 200.800781 153.820312 200.800781 L 175.105469 200.800781 C 175.558594 200.800781 175.925781 201.167969 175.925781 201.621094 Z M 141.539062 186.0625 L 187.386719 186.0625 C 187.386719 187.867188 185.917969 189.339844 184.113281 189.339844 L 144.8125 189.339844 C 143.007812 189.339844 141.539062 187.867188 141.539062 186.0625 Z M 144.8125 156.589844 L 184.113281 156.589844 C 185.917969 156.589844 187.386719 158.058594 187.386719 159.863281 L 187.386719 182.789062 L 141.539062 182.789062 L 141.539062 159.863281 C 141.539062 158.058594 143.007812 156.589844 144.8125 156.589844 Z M 236.511719 133.664062 C 236.511719 119.21875 224.761719 107.464844 210.3125 107.464844 C 195.867188 107.464844 184.113281 119.21875 184.113281 133.664062 C 184.113281 147.558594 194.988281 158.960938 208.675781 159.8125 L 208.675781 187.699219 C 208.675781 188.605469 207.941406 189.339844 207.039062 189.339844 L 197.214844 189.339844 C 194.503906 189.339844 192.300781 191.542969 192.300781 194.25 C 192.300781 196.960938 194.503906 199.164062 197.214844 199.164062 L 202.125 199.164062 C 203.027344 199.164062 203.761719 199.898438 203.761719 200.800781 C 203.761719 201.703125 203.027344 202.4375 202.125 202.4375 L 185.75 202.4375 C 184.847656 202.4375 184.113281 201.703125 184.113281 200.800781 L 184.113281 192.613281 C 187.726562 192.613281 190.664062 189.675781 190.664062 186.0625 L 190.664062 159.863281 C 190.664062 156.253906 187.726562 153.3125 184.113281 153.3125 L 144.8125 153.3125 C 141.203125 153.3125 138.261719 156.253906 138.261719 159.863281 L 138.261719 186.0625 C 138.261719 189.675781 141.203125 192.613281 144.8125 192.613281 L 159.367188 192.613281 C 158.953125 194.492188 157.832031 196.15625 156.191406 197.25 L 155.78125 197.527344 L 153.820312 197.527344 C 151.5625 197.527344 149.726562 199.363281 149.726562 201.621094 C 149.726562 203.878906 151.5625 205.714844 153.820312 205.714844 L 175.105469 205.714844 C 177.363281 205.714844 179.199219 203.878906 179.199219 201.621094 C 179.199219 199.363281 177.363281 197.527344 175.105469 197.527344 L 173.148438 197.527344 L 172.734375 197.25 C 171.09375 196.15625 169.976562 194.492188 169.558594 192.613281 L 180.839844 192.613281 L 180.839844 200.800781 C 180.839844 203.511719 183.042969 205.714844 185.75 205.714844 L 202.125 205.714844 C 204.835938 205.714844 207.039062 203.511719 207.039062 200.800781 C 207.039062 198.09375 204.835938 195.886719 202.125 195.886719 L 197.214844 195.886719 C 196.3125 195.886719 195.574219 195.152344 195.574219 194.25 C 195.574219 193.347656 196.3125 192.613281 197.214844 192.613281 L 207.039062 192.613281 C 209.746094 192.613281 211.949219 190.410156 211.949219 187.699219 L 211.949219 159.8125 C 225.636719 158.960938 236.511719 147.558594 236.511719 133.664062 " fill-opacity="1" fill-rule="nonzero"/></g><path fill="#38b6ff" d="M 164.464844 161.5 C 168.976562 161.5 172.652344 165.175781 172.652344 169.6875 C 172.652344 174.203125 168.976562 177.875 164.464844 177.875 C 159.949219 177.875 156.277344 174.203125 156.277344 169.6875 C 156.277344 165.175781 159.949219 161.5 164.464844 161.5 Z M 164.464844 181.152344 C 170.785156 181.152344 175.925781 176.007812 175.925781 169.6875 C 175.925781 163.367188 170.785156 158.226562 164.464844 158.226562 C 158.144531 158.226562 153 163.367188 153 169.6875 C 153 176.007812 158.144531 181.152344 164.464844 181.152344 " fill-opacity="1" fill-rule="nonzero"/><path fill="#38b6ff" d="M 162.824219 167.667969 L 166.191406 169.6875 L 162.824219 171.710938 Z M 160.382812 176.027344 C 160.632812 176.167969 160.910156 176.238281 161.1875 176.238281 C 161.480469 176.238281 161.773438 176.160156 162.03125 176.003906 L 170.21875 171.09375 C 170.710938 170.796875 171.011719 170.265625 171.011719 169.6875 C 171.011719 169.113281 170.710938 168.582031 170.21875 168.285156 L 162.03125 163.371094 C 161.523438 163.066406 160.894531 163.0625 160.382812 163.351562 C 159.867188 163.640625 159.550781 164.1875 159.550781 164.777344 L 159.550781 174.601562 C 159.550781 175.191406 159.867188 175.734375 160.382812 176.027344 " fill-opacity="1" fill-rule="nonzero"/><g fill="#38b6ff" fill-opacity="1"><g transform="translate(138.108745, 243.286362)"><g><path d="M 24.34375 -3.046875 C 24.46875 -2.703125 24.53125 -2.390625 24.53125 -2.109375 C 24.53125 -1.429688 24.304688 -0.878906 23.859375 -0.453125 C 23.421875 -0.0234375 22.914062 0.1875 22.34375 0.1875 C 21.875 0.1875 21.453125 0.046875 21.078125 -0.234375 C 20.703125 -0.515625 20.410156 -0.90625 20.203125 -1.40625 L 18.171875 -6.125 L 6.546875 -6.125 L 4.53125 -1.359375 C 4.34375 -0.867188 4.0625 -0.488281 3.6875 -0.21875 C 3.3125 0.0507812 2.898438 0.1875 2.453125 0.1875 C 1.773438 0.1875 1.257812 0.0078125 0.90625 -0.34375 C 0.5625 -0.707031 0.390625 -1.203125 0.390625 -1.828125 C 0.390625 -2.066406 0.425781 -2.316406 0.5 -2.578125 L 10.21875 -25.890625 C 10.425781 -26.410156 10.738281 -26.8125 11.15625 -27.09375 C 11.570312 -27.382812 12.039062 -27.503906 12.5625 -27.453125 C 13.03125 -27.453125 13.460938 -27.316406 13.859375 -27.046875 C 14.265625 -26.773438 14.554688 -26.390625 14.734375 -25.890625 Z M 8.46875 -10.609375 L 16.265625 -10.609375 L 12.328125 -19.734375 Z M 8.46875 -10.609375 "/></g></g></g><g fill="#38b6ff" fill-opacity="1"><g transform="translate(163.809765, 243.286362)"><g><path d="M 1.328125 -3.234375 C 1.085938 -3.546875 0.96875 -3.9375 0.96875 -4.40625 C 0.96875 -5.082031 1.304688 -5.65625 1.984375 -6.125 C 2.347656 -6.351562 2.726562 -6.46875 3.125 -6.46875 C 3.664062 -6.46875 4.1875 -6.222656 4.6875 -5.734375 C 5.457031 -4.929688 6.265625 -4.332031 7.109375 -3.9375 C 7.960938 -3.550781 8.984375 -3.359375 10.171875 -3.359375 C 12.203125 -3.429688 13.21875 -4.195312 13.21875 -5.65625 C 13.21875 -6.40625 12.875 -6.972656 12.1875 -7.359375 C 11.5 -7.753906 10.425781 -8.148438 8.96875 -8.546875 C 7.457031 -8.960938 6.226562 -9.375 5.28125 -9.78125 C 4.332031 -10.195312 3.515625 -10.828125 2.828125 -11.671875 C 2.140625 -12.523438 1.796875 -13.664062 1.796875 -15.09375 C 1.796875 -16.34375 2.148438 -17.425781 2.859375 -18.34375 C 3.578125 -19.269531 4.515625 -19.984375 5.671875 -20.484375 C 6.828125 -20.992188 8.054688 -21.25 9.359375 -21.25 C 10.679688 -21.25 12.003906 -21 13.328125 -20.5 C 14.660156 -20.007812 15.703125 -19.285156 16.453125 -18.328125 C 16.796875 -17.910156 16.96875 -17.441406 16.96875 -16.921875 C 16.96875 -16.328125 16.71875 -15.832031 16.21875 -15.4375 C 15.851562 -15.15625 15.4375 -15.015625 14.96875 -15.015625 C 14.40625 -15.015625 13.941406 -15.195312 13.578125 -15.5625 C 13.109375 -16.132812 12.5 -16.585938 11.75 -16.921875 C 11.007812 -17.265625 10.175781 -17.4375 9.25 -17.4375 C 7.269531 -17.4375 6.28125 -16.71875 6.28125 -15.28125 C 6.28125 -14.71875 6.460938 -14.257812 6.828125 -13.90625 C 7.191406 -13.550781 7.648438 -13.273438 8.203125 -13.078125 C 8.765625 -12.890625 9.550781 -12.648438 10.5625 -12.359375 C 11.96875 -11.972656 13.140625 -11.570312 14.078125 -11.15625 C 15.015625 -10.738281 15.804688 -10.097656 16.453125 -9.234375 C 17.109375 -8.378906 17.4375 -7.25 17.4375 -5.84375 C 17.4375 -4.570312 17.054688 -3.460938 16.296875 -2.515625 C 15.546875 -1.566406 14.578125 -0.84375 13.390625 -0.34375 C 12.210938 0.144531 11 0.390625 9.75 0.390625 C 8.03125 0.390625 6.429688 0.101562 4.953125 -0.46875 C 3.472656 -1.039062 2.265625 -1.960938 1.328125 -3.234375 Z M 1.328125 -3.234375 "/></g></g></g><g fill="#38b6ff" fill-opacity="1"><g transform="translate(183.387784, 243.286362)"><g><path d="M 19.890625 -4.09375 C 20.378906 -3.570312 20.625 -2.988281 20.625 -2.34375 C 20.625 -1.6875 20.367188 -1.132812 19.859375 -0.6875 C 19.359375 -0.25 18.820312 -0.03125 18.25 -0.03125 C 17.570312 -0.03125 17 -0.289062 16.53125 -0.8125 L 9.515625 -8.234375 L 7.609375 -6.46875 L 7.609375 -2.375 C 7.609375 -1.695312 7.382812 -1.128906 6.9375 -0.671875 C 6.5 -0.222656 5.941406 0 5.265625 0 C 4.585938 0 4.023438 -0.222656 3.578125 -0.671875 C 3.140625 -1.128906 2.921875 -1.695312 2.921875 -2.375 L 2.921875 -26.484375 C 2.921875 -27.160156 3.140625 -27.722656 3.578125 -28.171875 C 4.023438 -28.628906 4.585938 -28.859375 5.265625 -28.859375 C 5.941406 -28.859375 6.5 -28.628906 6.9375 -28.171875 C 7.382812 -27.722656 7.609375 -27.160156 7.609375 -26.484375 L 7.609375 -12.046875 L 15.953125 -20.125 C 16.441406 -20.613281 17.015625 -20.859375 17.671875 -20.859375 C 18.242188 -20.859375 18.753906 -20.617188 19.203125 -20.140625 C 19.660156 -19.660156 19.890625 -19.175781 19.890625 -18.6875 C 19.890625 -18.0625 19.578125 -17.472656 18.953125 -16.921875 L 13.0625 -11.5 Z M 19.890625 -4.09375 "/></g></g></g><g fill="#38b6ff" fill-opacity="1"><g transform="translate(206.358804, 243.286362)"><g><path d="M 6.9375 -2.375 C 6.9375 -1.695312 6.710938 -1.128906 6.265625 -0.671875 C 5.828125 -0.222656 5.273438 0 4.609375 0 C 3.929688 0 3.367188 -0.222656 2.921875 -0.671875 C 2.484375 -1.128906 2.265625 -1.695312 2.265625 -2.375 L 2.265625 -18.484375 C 2.265625 -19.160156 2.484375 -19.722656 2.921875 -20.171875 C 3.367188 -20.628906 3.929688 -20.859375 4.609375 -20.859375 C 5.273438 -20.859375 5.828125 -20.628906 6.265625 -20.171875 C 6.710938 -19.722656 6.9375 -19.160156 6.9375 -18.484375 Z M 4.5625 -23.40625 C 3.6875 -23.40625 3.066406 -23.546875 2.703125 -23.828125 C 2.335938 -24.117188 2.15625 -24.625 2.15625 -25.34375 L 2.15625 -26.09375 C 2.15625 -26.820312 2.347656 -27.328125 2.734375 -27.609375 C 3.128906 -27.898438 3.753906 -28.046875 4.609375 -28.046875 C 5.515625 -28.046875 6.148438 -27.898438 6.515625 -27.609375 C 6.878906 -27.328125 7.0625 -26.820312 7.0625 -26.09375 L 7.0625 -25.34375 C 7.0625 -24.59375 6.875 -24.082031 6.5 -23.8125 C 6.125 -23.539062 5.476562 -23.40625 4.5625 -23.40625 Z M 4.5625 -23.40625 "/></g></g></g><g fill="#38b6ff" fill-opacity="1"><g transform="translate(216.342818, 243.286362)"><g><path d="M 6.078125 -12.328125 C 6.078125 -13.003906 6.296875 -13.566406 6.734375 -14.015625 C 7.179688 -14.472656 7.742188 -14.703125 8.421875 -14.703125 C 10.140625 -14.703125 11.519531 -15.101562 12.5625 -15.90625 C 13.601562 -16.71875 14.125 -17.96875 14.125 -19.65625 C 14.125 -20.957031 13.65625 -22.035156 12.71875 -22.890625 C 11.78125 -23.753906 10.609375 -24.1875 9.203125 -24.1875 C 7.773438 -24.1875 6.515625 -23.703125 5.421875 -22.734375 C 4.796875 -22.160156 4.144531 -21.875 3.46875 -21.875 C 2.976562 -21.875 2.535156 -22.03125 2.140625 -22.34375 C 1.460938 -22.863281 1.125 -23.476562 1.125 -24.1875 C 1.125 -24.78125 1.375 -25.320312 1.875 -25.8125 C 2.8125 -26.78125 3.910156 -27.53125 5.171875 -28.0625 C 6.429688 -28.59375 7.773438 -28.859375 9.203125 -28.859375 C 10.972656 -28.859375 12.582031 -28.453125 14.03125 -27.640625 C 15.488281 -26.835938 16.644531 -25.726562 17.5 -24.3125 C 18.363281 -22.894531 18.796875 -21.34375 18.796875 -19.65625 C 18.796875 -17.15625 18.082031 -15.175781 16.65625 -13.71875 C 15.226562 -12.269531 13.328125 -11.363281 10.953125 -11 C 10.828125 -10.945312 10.765625 -10.878906 10.765625 -10.796875 L 10.765625 -9.359375 C 10.765625 -8.679688 10.539062 -8.113281 10.09375 -7.65625 C 9.65625 -7.207031 9.097656 -6.984375 8.421875 -6.984375 C 7.742188 -6.984375 7.179688 -7.207031 6.734375 -7.65625 C 6.296875 -8.113281 6.078125 -8.679688 6.078125 -9.359375 Z M 8.234375 0 C 7.472656 0 6.890625 -0.195312 6.484375 -0.59375 C 6.085938 -1 5.890625 -1.582031 5.890625 -2.34375 L 5.890625 -3 C 5.890625 -3.757812 6.085938 -4.335938 6.484375 -4.734375 C 6.890625 -5.140625 7.472656 -5.34375 8.234375 -5.34375 L 8.734375 -5.34375 C 9.484375 -5.34375 10.0625 -5.140625 10.46875 -4.734375 C 10.875 -4.335938 11.078125 -3.757812 11.078125 -3 L 11.078125 -2.34375 C 11.078125 -1.582031 10.875 -1 10.46875 -0.59375 C 10.0625 -0.195312 9.484375 0 8.734375 0 Z M 8.234375 0 "/></g></g></g><g fill="#38b6ff" fill-opacity="1"><g transform="translate(105.285166, 264.336311)"><g><path d="M 7.546875 -8.328125 C 7.546875 -8.160156 7.5 -8.003906 7.40625 -7.859375 L 4.6875 -3.96875 L 4.6875 -0.796875 C 4.6875 -0.566406 4.613281 -0.375 4.46875 -0.21875 C 4.320312 -0.0703125 4.144531 0 3.9375 0 C 3.71875 0 3.53125 -0.0703125 3.375 -0.21875 C 3.226562 -0.375 3.15625 -0.566406 3.15625 -0.796875 L 3.15625 -4.140625 L 0.453125 -7.734375 C 0.296875 -7.941406 0.21875 -8.144531 0.21875 -8.34375 C 0.21875 -8.570312 0.304688 -8.757812 0.484375 -8.90625 C 0.660156 -9.0625 0.847656 -9.140625 1.046875 -9.140625 C 1.296875 -9.140625 1.507812 -9.019531 1.6875 -8.78125 L 3.984375 -5.609375 L 6.125 -8.75 C 6.300781 -9.007812 6.515625 -9.140625 6.765625 -9.140625 C 6.972656 -9.140625 7.15625 -9.0625 7.3125 -8.90625 C 7.46875 -8.75 7.546875 -8.554688 7.546875 -8.328125 Z M 7.546875 -8.328125 "/></g></g></g><g fill="#38b6ff" fill-opacity="1"><g transform="translate(114.655816, 264.336311)"><g><path d="M 7.53125 -3.46875 C 7.53125 -2.78125 7.375 -2.160156 7.0625 -1.609375 C 6.75 -1.054688 6.320312 -0.628906 5.78125 -0.328125 C 5.238281 -0.0234375 4.640625 0.125 3.984375 0.125 C 3.328125 0.125 2.726562 -0.0234375 2.1875 -0.328125 C 1.65625 -0.628906 1.234375 -1.054688 0.921875 -1.609375 C 0.609375 -2.160156 0.453125 -2.78125 0.453125 -3.46875 C 0.453125 -4.164062 0.609375 -4.785156 0.921875 -5.328125 C 1.234375 -5.878906 1.65625 -6.304688 2.1875 -6.609375 C 2.726562 -6.921875 3.328125 -7.078125 3.984375 -7.078125 C 4.640625 -7.078125 5.238281 -6.921875 5.78125 -6.609375 C 6.320312 -6.304688 6.75 -5.878906 7.0625 -5.328125 C 7.375 -4.785156 7.53125 -4.164062 7.53125 -3.46875 Z M 5.96875 -3.46875 C 5.96875 -3.894531 5.878906 -4.273438 5.703125 -4.609375 C 5.523438 -4.941406 5.285156 -5.195312 4.984375 -5.375 C 4.679688 -5.5625 4.347656 -5.65625 3.984375 -5.65625 C 3.617188 -5.65625 3.285156 -5.5625 2.984375 -5.375 C 2.691406 -5.195312 2.457031 -4.941406 2.28125 -4.609375 C 2.101562 -4.273438 2.015625 -3.894531 2.015625 -3.46875 C 2.015625 -3.039062 2.101562 -2.660156 2.28125 -2.328125 C 2.457031 -2.003906 2.691406 -1.75 2.984375 -1.5625 C 3.285156 -1.382812 3.617188 -1.296875 3.984375 -1.296875 C 4.347656 -1.296875 4.679688 -1.382812 4.984375 -1.5625 C 5.285156 -1.75 5.523438 -2.003906 5.703125 -2.328125 C 5.878906 -2.660156 5.96875 -3.039062 5.96875 -3.46875 Z M 5.96875 -3.46875 "/></g></g></g><g fill="#38b6ff" fill-opacity="1"><g transform="translate(124.260393, 264.336311)"><g><path d="M 6 -6.953125 C 6.226562 -6.953125 6.414062 -6.875 6.5625 -6.71875 C 6.707031 -6.570312 6.78125 -6.382812 6.78125 -6.15625 L 6.78125 -2.859375 C 6.78125 -1.921875 6.519531 -1.1875 6 -0.65625 C 5.488281 -0.132812 4.757812 0.125 3.8125 0.125 C 2.851562 0.125 2.117188 -0.132812 1.609375 -0.65625 C 1.097656 -1.1875 0.84375 -1.921875 0.84375 -2.859375 L 0.84375 -6.15625 C 0.84375 -6.382812 0.914062 -6.570312 1.0625 -6.71875 C 1.207031 -6.875 1.394531 -6.953125 1.625 -6.953125 C 1.851562 -6.953125 2.039062 -6.875 2.1875 -6.71875 C 2.332031 -6.570312 2.40625 -6.382812 2.40625 -6.15625 L 2.40625 -2.859375 C 2.40625 -2.328125 2.519531 -1.929688 2.75 -1.671875 C 2.988281 -1.421875 3.34375 -1.296875 3.8125 -1.296875 C 4.289062 -1.296875 4.644531 -1.421875 4.875 -1.671875 C 5.101562 -1.929688 5.21875 -2.328125 5.21875 -2.859375 L 5.21875 -6.15625 C 5.21875 -6.382812 5.289062 -6.570312 5.4375 -6.71875 C 5.59375 -6.875 5.78125 -6.953125 6 -6.953125 Z M 6 -6.953125 "/></g></g></g><g fill="#38b6ff" fill-opacity="1"><g transform="translate(133.514083, 264.336311)"><g><path d="M 4.453125 -7.078125 C 4.710938 -7.078125 4.929688 -7.003906 5.109375 -6.859375 C 5.285156 -6.710938 5.375 -6.539062 5.375 -6.34375 C 5.375 -6.070312 5.304688 -5.867188 5.171875 -5.734375 C 5.035156 -5.597656 4.875 -5.53125 4.6875 -5.53125 C 4.550781 -5.53125 4.398438 -5.5625 4.234375 -5.625 C 4.210938 -5.632812 4.15625 -5.648438 4.0625 -5.671875 C 3.96875 -5.703125 3.867188 -5.71875 3.765625 -5.71875 C 3.546875 -5.71875 3.332031 -5.644531 3.125 -5.5 C 2.914062 -5.363281 2.742188 -5.15625 2.609375 -4.875 C 2.472656 -4.59375 2.40625 -4.257812 2.40625 -3.875 L 2.40625 -0.796875 C 2.40625 -0.566406 2.332031 -0.375 2.1875 -0.21875 C 2.039062 -0.0703125 1.851562 0 1.625 0 C 1.394531 0 1.207031 -0.0703125 1.0625 -0.21875 C 0.914062 -0.375 0.84375 -0.566406 0.84375 -0.796875 L 0.84375 -6.15625 C 0.84375 -6.382812 0.914062 -6.570312 1.0625 -6.71875 C 1.207031 -6.875 1.394531 -6.953125 1.625 -6.953125 C 1.851562 -6.953125 2.039062 -6.875 2.1875 -6.71875 C 2.332031 -6.570312 2.40625 -6.382812 2.40625 -6.15625 L 2.40625 -6 C 2.601562 -6.351562 2.890625 -6.617188 3.265625 -6.796875 C 3.640625 -6.984375 4.035156 -7.078125 4.453125 -7.078125 Z M 4.453125 -7.078125 "/></g></g></g><g fill="#38b6ff" fill-opacity="1"><g transform="translate(140.779375, 264.336311)"><g/></g></g><g fill="#38b6ff" fill-opacity="1"><g transform="translate(146.043288, 264.336311)"><g><path d="M 6 -1.515625 C 6.21875 -1.515625 6.398438 -1.441406 6.546875 -1.296875 C 6.703125 -1.160156 6.78125 -0.976562 6.78125 -0.75 C 6.78125 -0.53125 6.703125 -0.347656 6.546875 -0.203125 C 6.398438 -0.0664062 6.21875 0 6 0 L 1.765625 0 C 1.546875 0 1.359375 -0.0703125 1.203125 -0.21875 C 1.046875 -0.375 0.96875 -0.566406 0.96875 -0.796875 L 0.96875 -8.3125 C 0.96875 -8.53125 1.046875 -8.710938 1.203125 -8.859375 C 1.359375 -9.015625 1.5625 -9.09375 1.8125 -9.09375 C 2.019531 -9.09375 2.203125 -9.015625 2.359375 -8.859375 C 2.515625 -8.710938 2.59375 -8.53125 2.59375 -8.3125 L 2.59375 -1.515625 Z M 6 -1.515625 "/></g></g></g><g fill="#38b6ff" fill-opacity="1"><g transform="translate(154.972068, 264.336311)"><g><path d="M 7.078125 -3.640625 C 7.078125 -3.429688 7 -3.257812 6.84375 -3.125 C 6.6875 -3 6.503906 -2.9375 6.296875 -2.9375 L 2 -2.9375 C 2.101562 -2.425781 2.34375 -2.023438 2.71875 -1.734375 C 3.09375 -1.441406 3.515625 -1.296875 3.984375 -1.296875 C 4.335938 -1.296875 4.613281 -1.328125 4.8125 -1.390625 C 5.007812 -1.460938 5.164062 -1.535156 5.28125 -1.609375 C 5.394531 -1.679688 5.476562 -1.726562 5.53125 -1.75 C 5.6875 -1.832031 5.832031 -1.875 5.96875 -1.875 C 6.144531 -1.875 6.296875 -1.804688 6.421875 -1.671875 C 6.554688 -1.546875 6.625 -1.394531 6.625 -1.21875 C 6.625 -0.988281 6.503906 -0.773438 6.265625 -0.578125 C 6.023438 -0.378906 5.703125 -0.210938 5.296875 -0.078125 C 4.890625 0.0546875 4.476562 0.125 4.0625 0.125 C 3.332031 0.125 2.695312 -0.0234375 2.15625 -0.328125 C 1.613281 -0.628906 1.191406 -1.046875 0.890625 -1.578125 C 0.597656 -2.109375 0.453125 -2.707031 0.453125 -3.375 C 0.453125 -4.125 0.609375 -4.78125 0.921875 -5.34375 C 1.234375 -5.90625 1.644531 -6.332031 2.15625 -6.625 C 2.664062 -6.925781 3.210938 -7.078125 3.796875 -7.078125 C 4.367188 -7.078125 4.90625 -6.921875 5.40625 -6.609375 C 5.914062 -6.304688 6.320312 -5.890625 6.625 -5.359375 C 6.925781 -4.828125 7.078125 -4.253906 7.078125 -3.640625 Z M 3.796875 -5.65625 C 2.785156 -5.65625 2.191406 -5.179688 2.015625 -4.234375 L 5.421875 -4.234375 L 5.421875 -4.328125 C 5.390625 -4.691406 5.210938 -5.003906 4.890625 -5.265625 C 4.566406 -5.523438 4.203125 -5.65625 3.796875 -5.65625 Z M 3.796875 -5.65625 "/></g></g></g><g fill="#38b6ff" fill-opacity="1"><g transform="translate(164.134779, 264.336311)"><g><path d="M 6.46875 -7.078125 C 6.695312 -7.078125 6.882812 -7.003906 7.03125 -6.859375 C 7.175781 -6.710938 7.25 -6.523438 7.25 -6.296875 L 7.25 -0.796875 C 7.25 -0.566406 7.175781 -0.375 7.03125 -0.21875 C 6.882812 -0.0703125 6.695312 0 6.46875 0 C 6.25 0 6.066406 -0.0703125 5.921875 -0.21875 C 5.773438 -0.363281 5.695312 -0.550781 5.6875 -0.78125 C 5.476562 -0.53125 5.1875 -0.316406 4.8125 -0.140625 C 4.445312 0.0351562 4.0625 0.125 3.65625 0.125 C 3.050781 0.125 2.503906 -0.0234375 2.015625 -0.328125 C 1.535156 -0.640625 1.15625 -1.066406 0.875 -1.609375 C 0.59375 -2.160156 0.453125 -2.78125 0.453125 -3.46875 C 0.453125 -4.164062 0.585938 -4.785156 0.859375 -5.328125 C 1.140625 -5.878906 1.519531 -6.304688 2 -6.609375 C 2.488281 -6.921875 3.019531 -7.078125 3.59375 -7.078125 C 4.007812 -7.078125 4.398438 -7 4.765625 -6.84375 C 5.128906 -6.695312 5.4375 -6.507812 5.6875 -6.28125 L 5.6875 -6.296875 C 5.6875 -6.515625 5.757812 -6.695312 5.90625 -6.84375 C 6.0625 -7 6.25 -7.078125 6.46875 -7.078125 Z M 3.84375 -1.296875 C 4.40625 -1.296875 4.863281 -1.5 5.21875 -1.90625 C 5.582031 -2.320312 5.765625 -2.84375 5.765625 -3.46875 C 5.765625 -4.09375 5.582031 -4.613281 5.21875 -5.03125 C 4.863281 -5.445312 4.40625 -5.65625 3.84375 -5.65625 C 3.289062 -5.65625 2.835938 -5.445312 2.484375 -5.03125 C 2.128906 -4.613281 1.953125 -4.09375 1.953125 -3.46875 C 1.953125 -2.84375 2.125 -2.320312 2.46875 -1.90625 C 2.820312 -1.5 3.28125 -1.296875 3.84375 -1.296875 Z M 3.84375 -1.296875 "/></g></g></g><g fill="#38b6ff" fill-opacity="1"><g transform="translate(173.856329, 264.336311)"><g><path d="M 4.453125 -7.078125 C 4.710938 -7.078125 4.929688 -7.003906 5.109375 -6.859375 C 5.285156 -6.710938 5.375 -6.539062 5.375 -6.34375 C 5.375 -6.070312 5.304688 -5.867188 5.171875 -5.734375 C 5.035156 -5.597656 4.875 -5.53125 4.6875 -5.53125 C 4.550781 -5.53125 4.398438 -5.5625 4.234375 -5.625 C 4.210938 -5.632812 4.15625 -5.648438 4.0625 -5.671875 C 3.96875 -5.703125 3.867188 -5.71875 3.765625 -5.71875 C 3.546875 -5.71875 3.332031 -5.644531 3.125 -5.5 C 2.914062 -5.363281 2.742188 -5.15625 2.609375 -4.875 C 2.472656 -4.59375 2.40625 -4.257812 2.40625 -3.875 L 2.40625 -0.796875 C 2.40625 -0.566406 2.332031 -0.375 2.1875 -0.21875 C 2.039062 -0.0703125 1.851562 0 1.625 0 C 1.394531 0 1.207031 -0.0703125 1.0625 -0.21875 C 0.914062 -0.375 0.84375 -0.566406 0.84375 -0.796875 L 0.84375 -6.15625 C 0.84375 -6.382812 0.914062 -6.570312 1.0625 -6.71875 C 1.207031 -6.875 1.394531 -6.953125 1.625 -6.953125 C 1.851562 -6.953125 2.039062 -6.875 2.1875 -6.71875 C 2.332031 -6.570312 2.40625 -6.382812 2.40625 -6.15625 L 2.40625 -6 C 2.601562 -6.351562 2.890625 -6.617188 3.265625 -6.796875 C 3.640625 -6.984375 4.035156 -7.078125 4.453125 -7.078125 Z M 4.453125 -7.078125 "/></g></g></g><g fill="#38b6ff" fill-opacity="1"><g transform="translate(181.121622, 264.336311)"><g><path d="M 4.5625 -7.078125 C 5.445312 -7.078125 6.054688 -6.816406 6.390625 -6.296875 C 6.734375 -5.773438 6.90625 -5.050781 6.90625 -4.125 L 6.90625 -0.796875 C 6.90625 -0.566406 6.832031 -0.375 6.6875 -0.21875 C 6.539062 -0.0703125 6.351562 0 6.125 0 C 5.894531 0 5.707031 -0.0703125 5.5625 -0.21875 C 5.414062 -0.375 5.34375 -0.566406 5.34375 -0.796875 L 5.34375 -4.125 C 5.34375 -4.601562 5.242188 -4.976562 5.046875 -5.25 C 4.847656 -5.519531 4.503906 -5.65625 4.015625 -5.65625 C 3.515625 -5.65625 3.117188 -5.507812 2.828125 -5.21875 C 2.546875 -4.925781 2.40625 -4.5625 2.40625 -4.125 L 2.40625 -0.796875 C 2.40625 -0.566406 2.332031 -0.375 2.1875 -0.21875 C 2.039062 -0.0703125 1.851562 0 1.625 0 C 1.394531 0 1.207031 -0.0703125 1.0625 -0.21875 C 0.914062 -0.375 0.84375 -0.566406 0.84375 -0.796875 L 0.84375 -6.15625 C 0.84375 -6.382812 0.914062 -6.570312 1.0625 -6.71875 C 1.207031 -6.875 1.394531 -6.953125 1.625 -6.953125 C 1.851562 -6.953125 2.039062 -6.875 2.1875 -6.71875 C 2.332031 -6.570312 2.40625 -6.382812 2.40625 -6.15625 L 2.40625 -5.9375 C 2.632812 -6.25 2.9375 -6.515625 3.3125 -6.734375 C 3.695312 -6.960938 4.113281 -7.078125 4.5625 -7.078125 Z M 4.5625 -7.078125 "/></g></g></g><g fill="#38b6ff" fill-opacity="1"><g transform="translate(190.492272, 264.336311)"><g><path d="M 2.3125 -0.796875 C 2.3125 -0.566406 2.238281 -0.375 2.09375 -0.21875 C 1.945312 -0.0703125 1.757812 0 1.53125 0 C 1.3125 0 1.125 -0.0703125 0.96875 -0.21875 C 0.820312 -0.375 0.75 -0.566406 0.75 -0.796875 L 0.75 -6.15625 C 0.75 -6.382812 0.820312 -6.570312 0.96875 -6.71875 C 1.125 -6.875 1.3125 -6.953125 1.53125 -6.953125 C 1.757812 -6.953125 1.945312 -6.875 2.09375 -6.71875 C 2.238281 -6.570312 2.3125 -6.382812 2.3125 -6.15625 Z M 1.515625 -7.796875 C 1.222656 -7.796875 1.015625 -7.84375 0.890625 -7.9375 C 0.773438 -8.039062 0.71875 -8.210938 0.71875 -8.453125 L 0.71875 -8.703125 C 0.71875 -8.941406 0.78125 -9.109375 0.90625 -9.203125 C 1.039062 -9.296875 1.25 -9.34375 1.53125 -9.34375 C 1.832031 -9.34375 2.039062 -9.296875 2.15625 -9.203125 C 2.28125 -9.109375 2.34375 -8.941406 2.34375 -8.703125 L 2.34375 -8.453125 C 2.34375 -8.203125 2.28125 -8.03125 2.15625 -7.9375 C 2.03125 -7.84375 1.816406 -7.796875 1.515625 -7.796875 Z M 1.515625 -7.796875 "/></g></g></g><g fill="#38b6ff" fill-opacity="1"><g transform="translate(195.184361, 264.336311)"><g><path d="M 4.5625 -7.078125 C 5.445312 -7.078125 6.054688 -6.816406 6.390625 -6.296875 C 6.734375 -5.773438 6.90625 -5.050781 6.90625 -4.125 L 6.90625 -0.796875 C 6.90625 -0.566406 6.832031 -0.375 6.6875 -0.21875 C 6.539062 -0.0703125 6.351562 0 6.125 0 C 5.894531 0 5.707031 -0.0703125 5.5625 -0.21875 C 5.414062 -0.375 5.34375 -0.566406 5.34375 -0.796875 L 5.34375 -4.125 C 5.34375 -4.601562 5.242188 -4.976562 5.046875 -5.25 C 4.847656 -5.519531 4.503906 -5.65625 4.015625 -5.65625 C 3.515625 -5.65625 3.117188 -5.507812 2.828125 -5.21875 C 2.546875 -4.925781 2.40625 -4.5625 2.40625 -4.125 L 2.40625 -0.796875 C 2.40625 -0.566406 2.332031 -0.375 2.1875 -0.21875 C 2.039062 -0.0703125 1.851562 0 1.625 0 C 1.394531 0 1.207031 -0.0703125 1.0625 -0.21875 C 0.914062 -0.375 0.84375 -0.566406 0.84375 -0.796875 L 0.84375 -6.15625 C 0.84375 -6.382812 0.914062 -6.570312 1.0625 -6.71875 C 1.207031 -6.875 1.394531 -6.953125 1.625 -6.953125 C 1.851562 -6.953125 2.039062 -6.875 2.1875 -6.71875 C 2.332031 -6.570312 2.40625 -6.382812 2.40625 -6.15625 L 2.40625 -5.9375 C 2.632812 -6.25 2.9375 -6.515625 3.3125 -6.734375 C 3.695312 -6.960938 4.113281 -7.078125 4.5625 -7.078125 Z M 4.5625 -7.078125 "/></g></g></g><g fill="#38b6ff" fill-opacity="1"><g transform="translate(204.555012, 264.336311)"><g><path d="M 6.609375 -7.078125 C 6.828125 -7.078125 7.007812 -7.003906 7.15625 -6.859375 C 7.3125 -6.710938 7.390625 -6.523438 7.390625 -6.296875 L 7.390625 -0.5 C 7.390625 0.550781 7.0625 1.328125 6.40625 1.828125 C 5.75 2.335938 4.914062 2.59375 3.90625 2.59375 C 3.644531 2.59375 3.285156 2.550781 2.828125 2.46875 C 2.378906 2.382812 2.0625 2.296875 1.875 2.203125 C 1.445312 2.023438 1.234375 1.773438 1.234375 1.453125 C 1.234375 1.390625 1.25 1.320312 1.28125 1.25 C 1.332031 1.0625 1.421875 0.914062 1.546875 0.8125 C 1.671875 0.707031 1.804688 0.65625 1.953125 0.65625 C 2.035156 0.65625 2.117188 0.671875 2.203125 0.703125 C 2.234375 0.710938 2.445312 0.789062 2.84375 0.9375 C 3.238281 1.09375 3.59375 1.171875 3.90625 1.171875 C 4.550781 1.171875 5.03125 1.039062 5.34375 0.78125 C 5.664062 0.53125 5.828125 0.171875 5.828125 -0.296875 L 5.828125 -0.921875 C 5.628906 -0.648438 5.335938 -0.40625 4.953125 -0.1875 C 4.566406 0.0195312 4.15625 0.125 3.71875 0.125 C 3.113281 0.125 2.5625 -0.0234375 2.0625 -0.328125 C 1.5625 -0.640625 1.164062 -1.066406 0.875 -1.609375 C 0.59375 -2.160156 0.453125 -2.78125 0.453125 -3.46875 C 0.453125 -4.164062 0.59375 -4.785156 0.875 -5.328125 C 1.15625 -5.878906 1.539062 -6.304688 2.03125 -6.609375 C 2.519531 -6.921875 3.066406 -7.078125 3.671875 -7.078125 C 4.109375 -7.078125 4.515625 -6.984375 4.890625 -6.796875 C 5.273438 -6.617188 5.585938 -6.40625 5.828125 -6.15625 L 5.828125 -6.296875 C 5.828125 -6.515625 5.898438 -6.695312 6.046875 -6.84375 C 6.191406 -7 6.378906 -7.078125 6.609375 -7.078125 Z M 3.90625 -1.296875 C 4.488281 -1.296875 4.960938 -1.5 5.328125 -1.90625 C 5.703125 -2.320312 5.890625 -2.84375 5.890625 -3.46875 C 5.890625 -4.09375 5.703125 -4.613281 5.328125 -5.03125 C 4.960938 -5.445312 4.488281 -5.65625 3.90625 -5.65625 C 3.332031 -5.65625 2.863281 -5.445312 2.5 -5.03125 C 2.132812 -4.613281 1.953125 -4.09375 1.953125 -3.46875 C 1.953125 -2.84375 2.132812 -2.320312 2.5 -1.90625 C 2.863281 -1.5 3.332031 -1.296875 3.90625 -1.296875 Z M 3.90625 -1.296875 "/></g></g></g><g fill="#38b6ff" fill-opacity="1"><g transform="translate(214.40652, 264.336311)"><g/></g></g><g fill="#38b6ff" fill-opacity="1"><g transform="translate(219.670436, 264.336311)"><g><path d="M 7.34375 -8.65625 C 7.613281 -8.519531 7.75 -8.300781 7.75 -8 C 7.75 -7.8125 7.679688 -7.632812 7.546875 -7.46875 C 7.410156 -7.28125 7.234375 -7.1875 7.015625 -7.1875 C 6.867188 -7.1875 6.722656 -7.226562 6.578125 -7.3125 C 6.148438 -7.507812 5.691406 -7.609375 5.203125 -7.609375 C 4.597656 -7.609375 4.066406 -7.476562 3.609375 -7.21875 C 3.160156 -6.96875 2.8125 -6.609375 2.5625 -6.140625 C 2.320312 -5.679688 2.203125 -5.148438 2.203125 -4.546875 C 2.203125 -3.523438 2.476562 -2.75 3.03125 -2.21875 C 3.582031 -1.695312 4.304688 -1.4375 5.203125 -1.4375 C 5.734375 -1.4375 6.191406 -1.535156 6.578125 -1.734375 C 6.734375 -1.796875 6.875 -1.828125 7 -1.828125 C 7.21875 -1.828125 7.40625 -1.734375 7.5625 -1.546875 C 7.695312 -1.378906 7.765625 -1.203125 7.765625 -1.015625 C 7.765625 -0.878906 7.726562 -0.753906 7.65625 -0.640625 C 7.582031 -0.523438 7.484375 -0.4375 7.359375 -0.375 C 6.679688 -0.0390625 5.960938 0.125 5.203125 0.125 C 4.347656 0.125 3.566406 -0.0507812 2.859375 -0.40625 C 2.148438 -0.769531 1.582031 -1.300781 1.15625 -2 C 0.726562 -2.707031 0.515625 -3.554688 0.515625 -4.546875 C 0.515625 -5.429688 0.71875 -6.222656 1.125 -6.921875 C 1.53125 -7.628906 2.085938 -8.179688 2.796875 -8.578125 C 3.503906 -8.972656 4.304688 -9.171875 5.203125 -9.171875 C 5.972656 -9.171875 6.6875 -9 7.34375 -8.65625 Z M 7.34375 -8.65625 "/></g></g></g><g fill="#38b6ff" fill-opacity="1"><g transform="translate(229.443964, 264.336311)"><g><path d="M 7.078125 -3.640625 C 7.078125 -3.429688 7 -3.257812 6.84375 -3.125 C 6.6875 -3 6.503906 -2.9375 6.296875 -2.9375 L 2 -2.9375 C 2.101562 -2.425781 2.34375 -2.023438 2.71875 -1.734375 C 3.09375 -1.441406 3.515625 -1.296875 3.984375 -1.296875 C 4.335938 -1.296875 4.613281 -1.328125 4.8125 -1.390625 C 5.007812 -1.460938 5.164062 -1.535156 5.28125 -1.609375 C 5.394531 -1.679688 5.476562 -1.726562 5.53125 -1.75 C 5.6875 -1.832031 5.832031 -1.875 5.96875 -1.875 C 6.144531 -1.875 6.296875 -1.804688 6.421875 -1.671875 C 6.554688 -1.546875 6.625 -1.394531 6.625 -1.21875 C 6.625 -0.988281 6.503906 -0.773438 6.265625 -0.578125 C 6.023438 -0.378906 5.703125 -0.210938 5.296875 -0.078125 C 4.890625 0.0546875 4.476562 0.125 4.0625 0.125 C 3.332031 0.125 2.695312 -0.0234375 2.15625 -0.328125 C 1.613281 -0.628906 1.191406 -1.046875 0.890625 -1.578125 C 0.597656 -2.109375 0.453125 -2.707031 0.453125 -3.375 C 0.453125 -4.125 0.609375 -4.78125 0.921875 -5.34375 C 1.234375 -5.90625 1.644531 -6.332031 2.15625 -6.625 C 2.664062 -6.925781 3.210938 -7.078125 3.796875 -7.078125 C 4.367188 -7.078125 4.90625 -6.921875 5.40625 -6.609375 C 5.914062 -6.304688 6.320312 -5.890625 6.625 -5.359375 C 6.925781 -4.828125 7.078125 -4.253906 7.078125 -3.640625 Z M 3.796875 -5.65625 C 2.785156 -5.65625 2.191406 -5.179688 2.015625 -4.234375 L 5.421875 -4.234375 L 5.421875 -4.328125 C 5.390625 -4.691406 5.210938 -5.003906 4.890625 -5.265625 C 4.566406 -5.523438 4.203125 -5.65625 3.796875 -5.65625 Z M 3.796875 -5.65625 "/></g></g></g><g fill="#38b6ff" fill-opacity="1"><g transform="translate(238.606676, 264.336311)"><g><path d="M 4.5625 -7.078125 C 5.445312 -7.078125 6.054688 -6.816406 6.390625 -6.296875 C 6.734375 -5.773438 6.90625 -5.050781 6.90625 -4.125 L 6.90625 -0.796875 C 6.90625 -0.566406 6.832031 -0.375 6.6875 -0.21875 C 6.539062 -0.0703125 6.351562 0 6.125 0 C 5.894531 0 5.707031 -0.0703125 5.5625 -0.21875 C 5.414062 -0.375 5.34375 -0.566406 5.34375 -0.796875 L 5.34375 -4.125 C 5.34375 -4.601562 5.242188 -4.976562 5.046875 -5.25 C 4.847656 -5.519531 4.503906 -5.65625 4.015625 -5.65625 C 3.515625 -5.65625 3.117188 -5.507812 2.828125 -5.21875 C 2.546875 -4.925781 2.40625 -4.5625 2.40625 -4.125 L 2.40625 -0.796875 C 2.40625 -0.566406 2.332031 -0.375 2.1875 -0.21875 C 2.039062 -0.0703125 1.851562 0 1.625 0 C 1.394531 0 1.207031 -0.0703125 1.0625 -0.21875 C 0.914062 -0.375 0.84375 -0.566406 0.84375 -0.796875 L 0.84375 -6.15625 C 0.84375 -6.382812 0.914062 -6.570312 1.0625 -6.71875 C 1.207031 -6.875 1.394531 -6.953125 1.625 -6.953125 C 1.851562 -6.953125 2.039062 -6.875 2.1875 -6.71875 C 2.332031 -6.570312 2.40625 -6.382812 2.40625 -6.15625 L 2.40625 -5.9375 C 2.632812 -6.25 2.9375 -6.515625 3.3125 -6.734375 C 3.695312 -6.960938 4.113281 -7.078125 4.5625 -7.078125 Z M 4.5625 -7.078125 "/></g></g></g><g fill="#38b6ff" fill-opacity="1"><g transform="translate(247.977326, 264.336311)"><g><path d="M 4.203125 -1.46875 C 4.316406 -1.46875 4.425781 -1.410156 4.53125 -1.296875 C 4.632812 -1.179688 4.6875 -1.023438 4.6875 -0.828125 C 4.6875 -0.597656 4.554688 -0.398438 4.296875 -0.234375 C 4.035156 -0.078125 3.75 0 3.4375 0 C 2.894531 0 2.4375 -0.113281 2.0625 -0.34375 C 1.695312 -0.570312 1.515625 -1.0625 1.515625 -1.8125 L 1.515625 -5.390625 L 0.921875 -5.390625 C 0.710938 -5.390625 0.535156 -5.457031 0.390625 -5.59375 C 0.253906 -5.738281 0.1875 -5.914062 0.1875 -6.125 C 0.1875 -6.320312 0.253906 -6.488281 0.390625 -6.625 C 0.535156 -6.757812 0.710938 -6.828125 0.921875 -6.828125 L 1.515625 -6.828125 L 1.515625 -7.65625 C 1.515625 -7.882812 1.585938 -8.070312 1.734375 -8.21875 C 1.890625 -8.375 2.082031 -8.453125 2.3125 -8.453125 C 2.53125 -8.453125 2.710938 -8.375 2.859375 -8.21875 C 3.003906 -8.070312 3.078125 -7.882812 3.078125 -7.65625 L 3.078125 -6.828125 L 4 -6.828125 C 4.207031 -6.828125 4.378906 -6.753906 4.515625 -6.609375 C 4.660156 -6.472656 4.734375 -6.300781 4.734375 -6.09375 C 4.734375 -5.894531 4.660156 -5.726562 4.515625 -5.59375 C 4.378906 -5.457031 4.207031 -5.390625 4 -5.390625 L 3.078125 -5.390625 L 3.078125 -1.875 C 3.078125 -1.6875 3.125 -1.550781 3.21875 -1.46875 C 3.3125 -1.394531 3.441406 -1.359375 3.609375 -1.359375 C 3.679688 -1.359375 3.78125 -1.375 3.90625 -1.40625 C 4.007812 -1.445312 4.109375 -1.46875 4.203125 -1.46875 Z M 4.203125 -1.46875 "/></g></g></g><g fill="#38b6ff" fill-opacity="1"><g transform="translate(254.917721, 264.336311)"><g><path d="M 7.078125 -3.640625 C 7.078125 -3.429688 7 -3.257812 6.84375 -3.125 C 6.6875 -3 6.503906 -2.9375 6.296875 -2.9375 L 2 -2.9375 C 2.101562 -2.425781 2.34375 -2.023438 2.71875 -1.734375 C 3.09375 -1.441406 3.515625 -1.296875 3.984375 -1.296875 C 4.335938 -1.296875 4.613281 -1.328125 4.8125 -1.390625 C 5.007812 -1.460938 5.164062 -1.535156 5.28125 -1.609375 C 5.394531 -1.679688 5.476562 -1.726562 5.53125 -1.75 C 5.6875 -1.832031 5.832031 -1.875 5.96875 -1.875 C 6.144531 -1.875 6.296875 -1.804688 6.421875 -1.671875 C 6.554688 -1.546875 6.625 -1.394531 6.625 -1.21875 C 6.625 -0.988281 6.503906 -0.773438 6.265625 -0.578125 C 6.023438 -0.378906 5.703125 -0.210938 5.296875 -0.078125 C 4.890625 0.0546875 4.476562 0.125 4.0625 0.125 C 3.332031 0.125 2.695312 -0.0234375 2.15625 -0.328125 C 1.613281 -0.628906 1.191406 -1.046875 0.890625 -1.578125 C 0.597656 -2.109375 0.453125 -2.707031 0.453125 -3.375 C 0.453125 -4.125 0.609375 -4.78125 0.921875 -5.34375 C 1.234375 -5.90625 1.644531 -6.332031 2.15625 -6.625 C 2.664062 -6.925781 3.210938 -7.078125 3.796875 -7.078125 C 4.367188 -7.078125 4.90625 -6.921875 5.40625 -6.609375 C 5.914062 -6.304688 6.320312 -5.890625 6.625 -5.359375 C 6.925781 -4.828125 7.078125 -4.253906 7.078125 -3.640625 Z M 3.796875 -5.65625 C 2.785156 -5.65625 2.191406 -5.179688 2.015625 -4.234375 L 5.421875 -4.234375 L 5.421875 -4.328125 C 5.390625 -4.691406 5.210938 -5.003906 4.890625 -5.265625 C 4.566406 -5.523438 4.203125 -5.65625 3.796875 -5.65625 Z M 3.796875 -5.65625 "/></g></g></g><g fill="#38b6ff" fill-opacity="1"><g transform="translate(264.080433, 264.336311)"><g><path d="M 4.453125 -7.078125 C 4.710938 -7.078125 4.929688 -7.003906 5.109375 -6.859375 C 5.285156 -6.710938 5.375 -6.539062 5.375 -6.34375 C 5.375 -6.070312 5.304688 -5.867188 5.171875 -5.734375 C 5.035156 -5.597656 4.875 -5.53125 4.6875 -5.53125 C 4.550781 -5.53125 4.398438 -5.5625 4.234375 -5.625 C 4.210938 -5.632812 4.15625 -5.648438 4.0625 -5.671875 C 3.96875 -5.703125 3.867188 -5.71875 3.765625 -5.71875 C 3.546875 -5.71875 3.332031 -5.644531 3.125 -5.5 C 2.914062 -5.363281 2.742188 -5.15625 2.609375 -4.875 C 2.472656 -4.59375 2.40625 -4.257812 2.40625 -3.875 L 2.40625 -0.796875 C 2.40625 -0.566406 2.332031 -0.375 2.1875 -0.21875 C 2.039062 -0.0703125 1.851562 0 1.625 0 C 1.394531 0 1.207031 -0.0703125 1.0625 -0.21875 C 0.914062 -0.375 0.84375 -0.566406 0.84375 -0.796875 L 0.84375 -6.15625 C 0.84375 -6.382812 0.914062 -6.570312 1.0625 -6.71875 C 1.207031 -6.875 1.394531 -6.953125 1.625 -6.953125 C 1.851562 -6.953125 2.039062 -6.875 2.1875 -6.71875 C 2.332031 -6.570312 2.40625 -6.382812 2.40625 -6.15625 L 2.40625 -6 C 2.601562 -6.351562 2.890625 -6.617188 3.265625 -6.796875 C 3.640625 -6.984375 4.035156 -7.078125 4.453125 -7.078125 Z M 4.453125 -7.078125 "/></g></g></g></svg>