<svg width="1440" height="104" xmlns="http://www.w3.org/2000/svg" xmlns:xlink="http://www.w3.org/1999/xlink"><defs><path id="a" d="M0 0h1440v104H0z"/></defs><g fill="none" fill-rule="evenodd"><mask id="b" fill="#fff"><use xlink:href="#a"/></mask><use fill="#D9F0FF" xlink:href="#a"/><g mask="url(#b)" fill="#B9E2FE" fill-rule="nonzero"><path d="M157.653-78.233L19.767 59.653c-4.23 4.23-4.23 11.09.001 15.321L140.74 195.946a5.417 5.417 0 009.192-3.83l.073-63.508L257.25 21.364c4.23-4.231 4.23-11.09-.001-15.322l-84.275-84.274c-4.23-4.231-11.09-4.232-15.321-.001zM112.155 30.854a5.417 5.417 0 010 7.66L92.468 58.203c-5.286 5.285 5.21 15.781 10.496 10.496l11.49-11.49c2.145-2.146 6.895-8.427 9.193-6.129a18.963 18.963 0 014.367 4.367c1.992 1.992-3.6 7.43-5.745 9.576l-11.414 11.414c-5.822 5.822 5.057 16.7 10.956 10.955l19.687-19.687a5.417 5.417 0 017.66 0l4.367 4.368a5.417 5.417 0 010 7.66L121.89 111.37a5.417 5.417 0 01-7.661 0L68.26 65.4a5.417 5.417 0 010-7.66l31.56-31.56a5.417 5.417 0 017.661 0l4.674 4.673zM212.05 13.24a5.417 5.417 0 010 7.661l-7.66 7.66a5.416 5.416 0 01-4.596 1.532l-42.671-6.667a2.708 2.708 0 00-2.298 4.596l21.222 21.222a5.417 5.417 0 010 7.66l-6.128 6.129a5.417 5.417 0 01-7.66 0L116.29 17.065a5.417 5.417 0 010-7.661l8.426-8.426a5.416 5.416 0 014.597-1.532l39.99 5.978A2.708 2.708 0 00171.6.827l-19.46-19.46a5.417 5.417 0 010-7.66l6.205-6.205a5.417 5.417 0 017.661 0L212.05 13.24zM879.653-112.233L741.767 25.653c-4.23 4.23-4.23 11.09.001 15.321L862.74 161.946a5.417 5.417 0 009.192-3.83l.073-63.508L979.25-12.636c4.23-4.231 4.23-11.09-.001-15.322l-84.275-84.274c-4.23-4.231-11.09-4.232-15.321-.001zM834.155-3.146a5.417 5.417 0 010 7.66l-19.687 19.688c-5.286 5.285 5.21 15.781 10.496 10.496l11.49-11.49c2.145-2.146 6.895-8.427 9.193-6.129a18.963 18.963 0 014.367 4.367c1.992 1.992-3.6 7.43-5.745 9.576l-11.414 11.414c-5.822 5.822 5.057 16.7 10.956 10.955l19.687-19.687a5.417 5.417 0 017.66 0l4.367 4.368a5.417 5.417 0 010 7.66L843.89 77.37a5.417 5.417 0 01-7.661 0L790.26 31.4a5.417 5.417 0 010-7.66l31.56-31.56a5.417 5.417 0 017.661 0l4.674 4.673zM934.05-20.76a5.417 5.417 0 010 7.661l-7.66 7.66a5.416 5.416 0 01-4.596 1.532l-42.671-6.667a2.708 2.708 0 00-2.298 4.596l21.222 21.222a5.417 5.417 0 010 7.66l-6.128 6.129a5.417 5.417 0 01-7.66 0L838.29-16.935a5.417 5.417 0 010-7.661l8.426-8.426a5.416 5.416 0 014.597-1.532l39.99 5.978a2.708 2.708 0 002.297-4.597l-19.46-19.46a5.417 5.417 0 010-7.66l6.205-6.205a5.417 5.417 0 017.661 0L934.05-20.76zM475.347 89.233L613.233-48.653c4.23-4.23 4.23-11.09-.001-15.321L492.26-184.946a5.417 5.417 0 00-9.192 3.83l-.073 63.508L375.75-10.364c-4.23 4.231-4.23 11.09.001 15.322l84.275 84.274c4.23 4.231 11.09 4.232 15.321.001zm45.498-109.087a5.417 5.417 0 010-7.66l19.687-19.688c5.286-5.285-5.21-15.781-10.496-10.496l-11.49 11.49c-2.145 2.146-6.895 8.427-9.193 6.129a18.963 18.963 0 01-4.367-4.367c-1.992-1.992 3.6-7.43 5.745-9.576l11.414-11.414c5.822-5.822-5.057-16.7-10.956-10.955l-19.687 19.687a5.417 5.417 0 01-7.66 0l-4.367-4.368a5.417 5.417 0 010-7.66l31.636-31.638a5.417 5.417 0 017.661 0L564.74-54.4a5.417 5.417 0 010 7.66l-31.56 31.56a5.417 5.417 0 01-7.661 0l-4.674-4.673zM420.95-2.24a5.417 5.417 0 010-7.661l7.66-7.66a5.416 5.416 0 014.596-1.532l42.671 6.667a2.708 2.708 0 002.298-4.596l-21.222-21.222a5.417 5.417 0 010-7.66l6.128-6.129a5.417 5.417 0 017.66 0L516.71-6.065a5.417 5.417 0 010 7.661l-8.426 8.426a5.416 5.416 0 01-4.597 1.532l-39.99-5.978a2.708 2.708 0 00-2.297 4.597l19.46 19.46a5.417 5.417 0 010 7.66l-6.205 6.205a5.417 5.417 0 01-7.661 0L420.95-2.24zM1165.653-156.233L1027.767-18.347c-4.23 4.23-4.23 11.09.001 15.321l120.972 120.972a5.417 5.417 0 009.192-3.83l.073-63.508L1265.25-56.636c4.23-4.231 4.23-11.09-.001-15.322l-84.275-84.274c-4.23-4.231-11.09-4.232-15.321-.001zm-45.498 109.087a5.417 5.417 0 010 7.66l-19.687 19.688c-5.286 5.285 5.21 15.781 10.496 10.496l11.49-11.49c2.145-2.146 6.895-8.427 9.193-6.129a18.963 18.963 0 014.367 4.367c1.992 1.992-3.6 7.43-5.745 9.576l-11.414 11.414c-5.822 5.822 5.057 16.7 10.956 10.955l19.687-19.687a5.417 5.417 0 017.66 0l4.367 4.368a5.417 5.417 0 010 7.66L1129.89 33.37a5.417 5.417 0 01-7.661 0L1076.26-12.6a5.417 5.417 0 010-7.66l31.56-31.56a5.417 5.417 0 017.661 0l4.674 4.673zm99.895-17.614a5.417 5.417 0 010 7.661l-7.66 7.66a5.416 5.416 0 01-4.596 1.532l-42.671-6.667a2.708 2.708 0 00-2.298 4.596l21.222 21.222a5.417 5.417 0 010 7.66l-6.128 6.129a5.417 5.417 0 01-7.66 0l-45.969-45.968a5.417 5.417 0 010-7.661l8.426-8.426a5.416 5.416 0 014.597-1.532l39.99 5.978a2.708 2.708 0 002.297-4.597l-19.46-19.46a5.417 5.417 0 010-7.66l6.205-6.205a5.417 5.417 0 017.661 0l46.044 45.738zM318.653 12.767L180.767 150.653c-4.23 4.23-4.23 11.09.001 15.321L301.74 286.946a5.417 5.417 0 009.192-3.83l.073-63.508L418.25 112.364c4.23-4.231 4.23-11.09-.001-15.322l-84.275-84.274c-4.23-4.231-11.09-4.232-15.321-.001zm-45.498 109.087a5.417 5.417 0 010 7.66l-19.687 19.688c-5.286 5.285 5.21 15.781 10.496 10.496l11.49-11.49c2.145-2.146 6.895-8.427 9.193-6.129a18.963 18.963 0 014.367 4.367c1.992 1.992-3.6 7.43-5.745 9.576l-11.414 11.414c-5.822 5.822 5.057 16.7 10.956 10.955l19.687-19.687a5.417 5.417 0 017.66 0l4.367 4.368a5.417 5.417 0 010 7.66L282.89 202.37a5.417 5.417 0 01-7.661 0L229.26 156.4a5.417 5.417 0 010-7.66l31.56-31.56a5.417 5.417 0 017.661 0l4.674 4.673zm99.895-17.614a5.417 5.417 0 010 7.661l-7.66 7.66a5.416 5.416 0 01-4.596 1.532l-42.671-6.667a2.708 2.708 0 00-2.298 4.596l21.222 21.222a5.417 5.417 0 010 7.66l-6.128 6.129a5.417 5.417 0 01-7.66 0l-45.969-45.968a5.417 5.417 0 010-7.661l8.426-8.426a5.416 5.416 0 014.597-1.532l39.99 5.978a2.708 2.708 0 002.297-4.597l-19.46-19.46a5.417 5.417 0 010-7.66l6.205-6.205a5.417 5.417 0 017.661 0l46.044 45.738z"/><path d="M992.653 12.767L854.767 150.653c-4.23 4.23-4.23 11.09.001 15.321L975.74 286.946a5.417 5.417 0 009.192-3.83l.073-63.508 107.245-107.244c4.23-4.231 4.23-11.09-.001-15.322l-84.275-84.274c-4.23-4.231-11.09-4.232-15.321-.001zm-45.498 109.087a5.417 5.417 0 010 7.66l-19.687 19.688c-5.286 5.285 5.21 15.781 10.496 10.496l11.49-11.49c2.145-2.146 6.895-8.427 9.193-6.129a18.963 18.963 0 014.367 4.367c1.992 1.992-3.6 7.43-5.745 9.576l-11.414 11.414c-5.822 5.822 5.057 16.7 10.956 10.955l19.687-19.687a5.417 5.417 0 017.66 0l4.367 4.368a5.417 5.417 0 010 7.66L956.89 202.37a5.417 5.417 0 01-7.661 0L903.26 156.4a5.417 5.417 0 010-7.66l31.56-31.56a5.417 5.417 0 017.661 0l4.674 4.673zm99.895-17.614a5.417 5.417 0 010 7.661l-7.66 7.66a5.416 5.416 0 01-4.596 1.532l-42.671-6.667a2.708 2.708 0 00-2.298 4.596l21.222 21.222a5.417 5.417 0 010 7.66l-6.128 6.129a5.417 5.417 0 01-7.66 0l-45.969-45.968a5.417 5.417 0 010-7.661l8.426-8.426a5.416 5.416 0 014.597-1.532l39.99 5.978a2.708 2.708 0 002.297-4.597l-19.46-19.46a5.417 5.417 0 010-7.66l6.205-6.205a5.417 5.417 0 017.661 0l46.044 45.738zM624.653-15.233L486.767 122.653c-4.23 4.23-4.23 11.09.001 15.321L607.74 258.946a5.417 5.417 0 009.192-3.83l.073-63.508L724.25 84.364c4.23-4.231 4.23-11.09-.001-15.322l-84.275-84.274c-4.23-4.231-11.09-4.232-15.321-.001zM579.155 93.854a5.417 5.417 0 010 7.66l-19.687 19.688c-5.286 5.285 5.21 15.781 10.496 10.496l11.49-11.49c2.145-2.146 6.895-8.427 9.193-6.129a18.963 18.963 0 014.367 4.367c1.992 1.992-3.6 7.43-5.745 9.576l-11.414 11.414c-5.822 5.822 5.057 16.7 10.956 10.955l19.687-19.687a5.417 5.417 0 017.66 0l4.367 4.368a5.417 5.417 0 010 7.66L588.89 174.37a5.417 5.417 0 01-7.661 0L535.26 128.4a5.417 5.417 0 010-7.66l31.56-31.56a5.417 5.417 0 017.661 0l4.674 4.673zM679.05 76.24a5.417 5.417 0 010 7.661l-7.66 7.66a5.416 5.416 0 01-4.596 1.532l-42.671-6.667a2.708 2.708 0 00-2.298 4.596l21.222 21.222a5.417 5.417 0 010 7.66l-6.128 6.129a5.417 5.417 0 01-7.66 0L583.29 80.065a5.417 5.417 0 010-7.661l8.426-8.426a5.416 5.416 0 014.597-1.532l39.99 5.978a2.708 2.708 0 002.297-4.597l-19.46-19.46a5.417 5.417 0 010-7.66l6.205-6.205a5.417 5.417 0 017.661 0L679.05 76.24zM1331.653-78.233L1193.767 59.653c-4.23 4.23-4.23 11.09.001 15.321l120.972 120.972a5.417 5.417 0 009.192-3.83l.073-63.508L1431.25 21.364c4.23-4.231 4.23-11.09-.001-15.322l-84.275-84.274c-4.23-4.231-11.09-4.232-15.321-.001zm-45.498 109.087a5.417 5.417 0 010 7.66l-19.687 19.688c-5.286 5.285 5.21 15.781 10.496 10.496l11.49-11.49c2.145-2.146 6.895-8.427 9.193-6.129a18.963 18.963 0 014.367 4.367c1.992 1.992-3.6 7.43-5.745 9.576l-11.414 11.414c-5.822 5.822 5.057 16.7 10.956 10.955l19.687-19.687a5.417 5.417 0 017.66 0l4.367 4.368a5.417 5.417 0 010 7.66l-31.636 31.638a5.417 5.417 0 01-7.661 0L1242.26 65.4a5.417 5.417 0 010-7.66l31.56-31.56a5.417 5.417 0 017.661 0l4.674 4.673zm99.895-17.614a5.417 5.417 0 010 7.661l-7.66 7.66a5.416 5.416 0 01-4.596 1.532l-42.671-6.667a2.708 2.708 0 00-2.298 4.596l21.222 21.222a5.417 5.417 0 010 7.66l-6.128 6.129a5.417 5.417 0 01-7.66 0l-45.969-45.968a5.417 5.417 0 010-7.661l8.426-8.426a5.416 5.416 0 014.597-1.532l39.99 5.978A2.708 2.708 0 001345.6.827l-19.46-19.46a5.417 5.417 0 010-7.66l6.205-6.205a5.417 5.417 0 017.661 0l46.044 45.738z"/></g></g></svg>
