<svg width="89" height="72" viewBox="0 0 89 72" fill="none" xmlns="http://www.w3.org/2000/svg">
<g id="Vector 1" filter="url(#filter0_d_1_4)">
<path d="M17.825 23.2019C15.116 32.2889 10.4484 35.489 6.82454 33.8409C5.7263 33.3414 5.86548 31.8725 6.84225 31.1644L17.825 23.2019L22.1718 20.0504C23.4235 19.1429 25.1876 19.9381 25.3365 21.477L25.7811 26.0716C25.9693 28.0161 28.6307 28.4191 29.3862 26.6175C30.18 24.7246 33 25.292 33 27.3446V30C33 31.1046 33.8954 32 35 32H41.2414L44.3448 38H49.4737L49.8377 31.0835C49.9139 29.6356 51.4574 28.7474 52.7476 29.409L62.1297 34.2204C63.9978 35.1784 63.3165 38 61.2171 38H49.4737L49.3874 39.6395C49.2802 41.6762 46.5507 42.2647 45.6137 40.4532L44.3448 38L41.2414 32H35C33.8954 32 33 31.1046 33 30V27.3446C33 25.292 30.18 24.7246 29.3862 26.6175C28.6307 28.4191 25.9693 28.0161 25.7811 26.0716L25.3365 21.477C25.1876 19.9381 23.4235 19.1429 22.1718 20.0504L17.825 23.2019Z" fill="#13FB46"/>
<path d="M20 2C20.718 27.1313 12.494 36.4193 6.82454 33.8409C5.7263 33.3414 5.86548 31.8725 6.84225 31.1644L22.1718 20.0504C23.4235 19.1429 25.1876 19.9381 25.3365 21.477L25.7811 26.0716C25.9693 28.0161 28.6307 28.4191 29.3862 26.6175V26.6175C30.18 24.7246 33 25.292 33 27.3446V30C33 31.1046 33.8954 32 35 32H42C43.1046 32 44 31.1046 44 30V13.4093C44 11.7782 45.8475 10.833 47.1702 11.7874L83.5 38M34 18L45.6137 40.4532C46.5507 42.2647 49.2802 41.6762 49.3874 39.6395L49.8377 31.0835C49.9139 29.6356 51.4574 28.7474 52.7476 29.409L62.1297 34.2204C63.9978 35.1784 63.3165 38 61.2171 38H34.5669C32.9066 38 31.9693 39.9061 32.9829 41.221L49 62" stroke="#034545" stroke-width="3" stroke-miterlimit="1.00189" stroke-linecap="round"/>
<path d="M20 2C20.718 27.1313 12.494 36.4193 6.82454 33.8409C5.7263 33.3414 5.86548 31.8725 6.84225 31.1644L22.1718 20.0504C23.4235 19.1429 25.1876 19.9381 25.3365 21.477L25.7811 26.0716C25.9693 28.0161 28.6307 28.4191 29.3862 26.6175V26.6175C30.18 24.7246 33 25.292 33 27.3446V30C33 31.1046 33.8954 32 35 32H42C43.1046 32 44 31.1046 44 30V13.4093C44 11.7782 45.8475 10.833 47.1702 11.7874L83.5 38M34 18L45.6137 40.4532C46.5507 42.2647 49.2802 41.6762 49.3874 39.6395L49.8377 31.0835C49.9139 29.6356 51.4574 28.7474 52.7476 29.409L62.1297 34.2204C63.9978 35.1784 63.3165 38 61.2171 38H34.5669C32.9066 38 31.9693 39.9061 32.9829 41.221L49 62" stroke="#FD3D00" stroke-opacity="0.15" stroke-width="3" stroke-miterlimit="1.00189" stroke-linecap="round"/>
<path d="M20 2C20.718 27.1313 12.494 36.4193 6.82454 33.8409C5.7263 33.3414 5.86548 31.8725 6.84225 31.1644L22.1718 20.0504C23.4235 19.1429 25.1876 19.9381 25.3365 21.477L25.7811 26.0716C25.9693 28.0161 28.6307 28.4191 29.3862 26.6175V26.6175C30.18 24.7246 33 25.292 33 27.3446V30C33 31.1046 33.8954 32 35 32H42C43.1046 32 44 31.1046 44 30V13.4093C44 11.7782 45.8475 10.833 47.1702 11.7874L83.5 38M34 18L45.6137 40.4532C46.5507 42.2647 49.2802 41.6762 49.3874 39.6395L49.8377 31.0835C49.9139 29.6356 51.4574 28.7474 52.7476 29.409L62.1297 34.2204C63.9978 35.1784 63.3165 38 61.2171 38H34.5669C32.9066 38 31.9693 39.9061 32.9829 41.221L49 62" stroke="#0E6262" stroke-opacity="0.24" stroke-width="3" stroke-miterlimit="1.00189" stroke-linecap="round"/>
</g>
<defs>
<filter id="filter0_d_1_4" x="0.554214" y="0.5" width="88.4459" height="71.0001" filterUnits="userSpaceOnUse" color-interpolation-filters="sRGB">
<feFlood flood-opacity="0" result="BackgroundImageFix"/>
<feColorMatrix in="SourceAlpha" type="matrix" values="0 0 0 0 0 0 0 0 0 0 0 0 0 0 0 0 0 0 127 0" result="hardAlpha"/>
<feOffset dy="4"/>
<feGaussianBlur stdDeviation="2"/>
<feComposite in2="hardAlpha" operator="out"/>
<feColorMatrix type="matrix" values="0 0 0 0 0 0 0 0 0 0 0 0 0 0 0 0 0 0 0.25 0"/>
<feBlend mode="normal" in2="BackgroundImageFix" result="effect1_dropShadow_1_4"/>
<feBlend mode="normal" in="SourceGraphic" in2="effect1_dropShadow_1_4" result="shape"/>
</filter>
</defs>
</svg>
